<svg width="301" height="740" viewBox="0 0 301 740" fill="none" xmlns="http://www.w3.org/2000/svg">
<path d="M150.589 403.682C142.379 403.849 134.301 405.783 126.906 409.353C116.166 415.14 106.971 423.419 100.092 433.495C88.0292 450.737 81.6863 473.6 79.7196 495.284C78.9165 498.841 78.0807 502.381 77.3431 505.839C74.9994 515.673 72.9015 525.506 70.7873 535.34C66.7445 554.691 62.9584 574.091 59.4291 593.54C53.3649 627.237 47.3991 661.23 43.4655 695.304C31.9928 764.567 21.6673 833.994 11.1287 903.371C7.44102 927.677 2.24541 952.196 0.60644 976.748C-0.245825 989.614 -1.55695 1004.3 5.98231 1014.44C19.6841 1032.98 31.6486 1011.63 37.9258 999.3C44.3834 986.691 50.8191 974.076 57.2329 961.456C82.3584 912.025 107.369 862.495 130.987 812.31C153.932 763.829 175.665 714.824 195.021 664.803C203.38 647.151 209.526 628.499 215.77 610.028C223.392 587.525 231.587 565.186 238.093 542.322C244.649 519.147 251.631 491.957 249.435 466.766C249.714 466.93 249.927 466.52 249.681 466.356L249.386 466.143C247.976 450.917 243.174 436.412 232.881 423.989C233.381 421.085 233.671 418.149 233.75 415.204C234.965 410.439 235.011 405.452 233.881 400.666C233.74 395.363 231.692 390.289 228.112 386.374L227.506 385.735C227.506 384.604 225.604 383.047 223.703 381.769C223.104 380.988 222.639 380.113 222.326 379.179C222.047 378.222 221.953 377.221 222.048 376.229C223.009 373.454 223.96 370.668 224.899 367.87C225.686 366.192 226.269 364.426 226.637 362.609C245.977 303.262 260.875 235.179 277.248 216.364C293.753 204.219 304.291 203.531 319.14 194.943C321.386 193.648 332.088 188.239 330.318 184.027C328.679 180.323 320.156 183.83 316.534 185.666C320.583 181.339 324.516 176.881 328.515 172.554C330.498 170.407 336.923 165.261 333.268 161.754C328.466 157.164 311.273 174.669 306.487 181.143C309.552 173.8 312.175 166.244 314.682 158.705C315.108 157.459 313.748 156.804 311.06 158.361C310.126 159.033 309.175 159.688 308.274 160.393C304.288 164.216 300.866 168.587 298.112 173.374C293.556 180.749 287.606 187.436 282.853 194.828L276.773 204.268C280.461 195.91 284.525 187.797 288.246 179.536C294.238 172.499 300.926 166.086 308.208 160.393C309.06 159.616 309.995 158.935 310.995 158.361C315.918 154.697 321.143 151.457 326.614 148.674C334.989 144.495 353.51 136.989 352.624 125.106C352.616 124.889 352.525 124.683 352.369 124.53C352.214 124.378 352.006 124.291 351.789 124.287C350.913 124.15 350.019 124.188 349.158 124.399C348.297 124.61 347.486 124.99 346.773 125.516C352.755 120.451 358.885 112.683 358.787 105.635C358.783 105.337 358.662 105.051 358.451 104.84C358.24 104.629 357.955 104.509 357.656 104.504C349.576 104.34 341.709 111.273 336.989 118.386C338.237 115.408 338.995 112.248 339.234 109.028C339.232 108.869 339.194 108.713 339.123 108.572C339.051 108.431 338.948 108.308 338.821 108.213C338.694 108.118 338.547 108.053 338.392 108.024C338.236 107.995 338.076 108.002 337.923 108.044C329.531 110.995 324.418 119.517 319.73 126.548C312.322 137.71 303.57 147.855 295.326 158.295C298.866 145.298 305.996 132.154 313.502 121.123C317.951 114.416 322.881 108.04 328.253 102.046C332.531 97.4239 337.628 92.8348 339.136 86.4756C339.177 86.3059 339.175 86.1283 339.128 85.9599C339.081 85.7916 338.991 85.6383 338.867 85.5147C338.744 85.3911 338.59 85.3015 338.422 85.2545C338.254 85.2075 338.076 85.2047 337.907 85.2464C336.776 85.6397 335.694 86.0986 334.629 86.574C335.94 85.0333 337.202 83.4927 338.431 82.0176C342.741 76.8385 346.626 71.2496 347.757 64.497C347.798 64.3251 347.801 64.1462 347.765 63.9731C347.729 63.8001 347.655 63.6372 347.548 63.4961C347.442 63.3551 347.305 63.2394 347.148 63.1574C346.992 63.0754 346.819 63.0292 346.642 63.022C343.323 63.2067 340.143 64.4212 337.546 66.4966C338.874 63.8087 340.054 61.1043 341.086 58.5803C344.069 51.4508 346.823 42.9773 344.512 35.2742C344.424 34.9655 344.218 34.7036 343.939 34.5443C343.661 34.3851 343.331 34.3411 343.02 34.4219C332.023 38.798 326.909 52.5489 324.647 63.9234C323.383 58.1132 321.326 52.5046 318.534 47.2551C318.38 47.0004 318.134 46.8153 317.846 46.7389C317.559 46.6625 317.253 46.7006 316.993 46.8453C308.93 51.3197 309.159 63.5464 311.191 73.6916C310.252 71.8111 309.202 69.9886 308.045 68.2339C307.929 68.0471 307.757 67.9019 307.554 67.8194C307.351 67.7369 307.126 67.7214 306.914 67.775C301.407 70.0695 302.488 79.428 302.783 84.1647C303.138 88.723 303.74 93.2587 304.586 97.7517C304.561 97.7438 304.534 97.7421 304.508 97.7466C304.482 97.7512 304.458 97.762 304.437 97.7781C304.416 97.7942 304.399 97.8151 304.388 97.839C304.377 97.863 304.372 97.8892 304.373 97.9156C304.197 100.004 303.857 102.076 303.357 104.111C303.085 103.026 302.666 101.984 302.111 101.013C302.055 100.921 301.98 100.843 301.889 100.784C301.799 100.725 301.696 100.687 301.59 100.672C301.483 100.658 301.374 100.668 301.271 100.702C301.169 100.735 301.075 100.791 300.997 100.866C300.357 101.659 299.848 102.55 299.489 103.505C298.788 98.745 297.692 94.0523 296.211 89.4749C294.851 84.7383 293.195 79.0019 288.934 76.0354C288.793 75.9488 288.634 75.8963 288.469 75.882C288.304 75.8678 288.137 75.8922 287.983 75.9534C288.983 74.9864 289.967 74.0031 291.032 73.1016C295.572 69.25 301.161 66.0868 302.767 59.9899C302.799 59.8613 302.802 59.7273 302.775 59.5976C302.748 59.4679 302.693 59.3458 302.612 59.2404C302.532 59.1351 302.429 59.049 302.311 58.9887C302.193 58.9283 302.063 58.8952 301.931 58.8917C300.365 58.9549 298.83 59.3457 297.424 60.039C303.406 52.8112 311.044 45.9111 312.289 36.3559C312.289 35.7822 311.667 35.5856 311.273 35.7659C304.671 38.7894 298.699 43.0321 293.671 48.2712C293.966 47.7959 294.277 47.3042 294.556 46.8125C309.651 19.6548 331.301 11.4272 328.745 -7.27349C328.691 -7.47122 328.573 -7.64571 328.41 -7.77011C328.248 -7.8945 328.048 -7.96186 327.843 -7.96183C325.069 -7.85533 322.407 -6.83555 320.271 -5.06087C328.089 -26.1216 330.99 -33.497 329.023 -41.5771C327.974 -45.9204 310.339 -32.0055 304.93 -4.74946C304.537 -11.6987 304.406 -20.713 299.473 -22.9256C299.316 -23.0115 299.143 -23.0619 298.965 -23.073C298.786 -23.0842 298.608 -23.0559 298.442 -22.9901C298.276 -22.9244 298.127 -22.8228 298.005 -22.6926C297.883 -22.5625 297.791 -22.4071 297.735 -22.2373C291.18 -4.70031 294.638 10.4602 292.622 22.0149C291.638 27.6693 288.786 31.4882 286.557 36.5362C286.746 27.6083 284.325 18.8194 279.592 11.2469C279.49 11.1133 279.354 11.0092 279.198 10.9454C279.042 10.8816 278.872 10.8602 278.706 10.8836C278.539 10.9069 278.381 10.9741 278.249 11.0782C278.117 11.1824 278.015 11.3198 277.953 11.4763C273.61 24.162 281.231 35.9462 281.559 48.5007C280.838 50.3855 280.149 52.2867 279.526 54.1879C278.264 55.6794 277.019 57.1872 275.806 58.7115C275.527 59.072 276.019 59.5801 276.298 59.2195L279.084 55.6629C278.691 56.925 278.281 58.187 277.969 59.4654C277.756 60.3012 279.018 60.9077 279.412 60.0718C282.69 52.7948 285.345 45.0097 288.934 37.8965C291.884 32.0618 295.752 25.8009 295.719 19.0648C295.719 11.378 296.244 -24.958 300.636 -19.156C304.635 -13.813 302.587 6.7561 303.488 14.9509C303.488 15.1031 303.549 15.249 303.656 15.3566C303.764 15.4642 303.91 15.5246 304.062 15.5246C304.214 15.5246 304.36 15.4642 304.467 15.3566C304.575 15.249 304.635 15.1031 304.635 14.9509C305.237 9.69086 305.429 4.39196 305.209 -0.897869C310.126 -14.6816 315.272 -29.8421 327.155 -39.1023C329.253 -27.7442 314.043 5.14991 308.684 15.2624C308.597 15.4101 308.572 15.5864 308.615 15.7524C308.658 15.9184 308.765 16.0605 308.913 16.1474C309.061 16.2344 309.237 16.259 309.403 16.216C309.569 16.173 309.711 16.0657 309.798 15.9179C313.656 10.4234 316.795 4.45845 319.14 -1.83209C322.566 -5.29032 322.517 -4.79864 327.188 -5.73285C327.188 -5.30672 327.188 -4.86418 327.188 -4.43805C330.138 2.9701 305.668 24.8504 301.489 32.2421C298.325 35.5201 296.457 39.5847 294.244 43.7149C291.77 48.2876 288.967 52.844 286.05 57.2856C283.919 60.1374 281.952 63.0875 280.166 66.0213C279.248 67.3324 281.493 68.6764 282.345 67.2669C285.711 61.7452 289.591 56.5539 293.933 51.7622C297.801 47.5009 303.324 40.7156 308.897 38.7652C310.421 38.2243 310.29 37.2573 310.536 39.1422C310.667 40.2403 309.175 42.4201 308.602 43.4198C306.896 46.2606 304.932 48.938 302.734 51.418C299.555 55.2204 296.178 58.7934 293.261 62.8908C292.786 63.5792 293.736 64.5298 294.425 64.0381C295.113 63.5464 299.096 60.2521 300.21 62.2844C300.604 62.9728 296.457 66.5457 295.785 67.1194C293.359 69.2009 290.704 71.0038 288.295 73.118C281.452 79.2645 275.039 85.8742 269.103 92.9004C268.977 93.0462 268.908 93.2323 268.908 93.4248C268.908 93.6174 268.977 93.8035 269.103 93.9493C262.219 102.324 259.433 113.945 255.991 123.91C247.026 149.625 247.632 148.494 245.141 164.278C242.629 172.409 241.58 180.921 242.043 189.419C242.064 189.532 242.124 189.634 242.212 189.708C242.3 189.781 242.412 189.822 242.527 189.822C242.641 189.822 242.753 189.781 242.841 189.708C242.929 189.634 242.989 189.532 243.01 189.419C245.075 169.752 252.123 152.034 261.383 134.809C264.399 142.545 262.661 153.182 260.842 160.754C260.711 161.278 261.514 161.672 261.76 161.147C267.578 148.806 266.283 124.09 279.625 114.01C279.723 119.14 273.216 144.036 271.741 148.265C270.922 150.559 269.217 152.231 269.021 154.821C270.66 154.198 271.79 150.854 273.036 149.297C274.956 146.963 277.454 145.172 280.28 144.102C279.264 144.544 276.396 153.804 275.363 155.394C272.847 158.812 270.069 162.029 267.054 165.015C259.872 172.771 253.26 181.037 247.271 189.747C238.306 203.17 242.24 218.413 231.029 269.04C229.603 275.596 228.358 281.12 227.309 285.922C226.539 283.086 225.67 280.284 224.801 277.465C224.784 277.404 224.753 277.348 224.712 277.3C224.67 277.252 224.618 277.215 224.56 277.19C224.502 277.164 224.439 277.153 224.376 277.155C224.313 277.157 224.251 277.173 224.195 277.203C225.572 268.795 226.916 260.403 228.145 251.979C228.145 251.831 227.948 251.766 227.932 251.979C225.44 264.681 223.195 277.399 220.95 290.134C220.655 289.38 220.343 288.643 220.015 287.905C219.868 287.577 219.327 287.807 219.442 288.151C219.802 289.347 220.245 290.511 220.671 291.691C220.294 293.92 219.884 296.165 219.491 298.378C219.114 297.493 218.704 296.592 218.327 295.69C218.098 295.117 217.147 295.362 217.393 295.952C217.983 297.395 218.573 298.853 219.147 300.328C218.671 302.967 218.196 305.622 217.688 308.294C216.852 306.245 216.049 304.213 215.197 302.148C217.885 286.823 220.491 271.941 220.556 271.548C233.029 197.712 237.995 163.622 249.255 125.27C252.729 113.453 256.646 101.8 260.727 90.1961C263.35 82.8535 264.005 71.9707 270.053 66.6605C270.121 66.5804 270.159 66.4787 270.159 66.3736C270.159 66.2685 270.121 66.1669 270.053 66.0868C270.61 65.3165 271.135 64.4479 271.692 63.6775C272.618 62.0907 273.22 60.3359 273.462 58.5148C274.891 56.0373 275.423 53.1437 274.97 50.3199C276.445 47.5783 277.737 44.7421 278.838 41.83C278.838 41.6825 278.658 41.5842 278.576 41.7154C277.137 44.3192 275.867 47.0126 274.773 49.7791C274.531 48.6509 274.168 47.552 273.692 46.5011C274.963 43.7489 276.057 40.9187 276.97 38.0277C276.97 37.8638 276.773 37.749 276.691 37.8965C275.431 40.5581 274.336 43.2949 273.413 46.0914C272.8 44.802 272.059 43.5776 271.2 42.4365C269.561 40.3386 264.644 35.1267 266.283 32.1601C267.087 30.7178 271.2 32.6846 272.053 33.1927C275.208 35.2549 277.799 38.0715 279.592 41.3875C279.821 41.7973 280.543 41.5187 280.379 41.0598C278.101 35.225 272.184 27.5382 265.12 30.3737C265.03 30.2344 264.909 30.1177 264.767 30.0324C264.625 29.9472 264.465 29.8957 264.3 29.882C252.828 29.1445 248.304 49.0415 246.501 59.8751C245.444 53.4879 243.479 47.2846 240.666 41.4531L240.929 40.8303C240.929 41.1581 240.929 41.4859 240.929 41.8137C240.929 42.1415 241.158 41.994 241.175 41.8137C241.273 41.1417 241.338 40.4861 241.42 39.8306C245.633 29.9967 252.221 18.4092 247.976 8.93595C244.977 2.15062 238.929 8.49342 236.88 13.017C236.88 4.34682 236.471 -4.35609 236.012 -12.9279C235.881 -15.6814 236.258 -25.5316 232.127 -26.0397C226.686 -26.81 224.326 -12.6821 223.818 -9.51887C222.686 -3.17102 222.537 3.31308 223.375 9.70627C222.874 8.80469 222.327 7.92941 221.736 7.08391C220.343 5.06797 217.065 1.77365 214.23 2.167C214.23 1.47863 214.23 0.806671 214.099 0.134693C214.022 -0.141006 213.84 -0.375183 213.591 -0.516483C213.342 -0.657787 213.047 -0.69474 212.771 -0.61927C210.374 0.282635 208.199 1.69148 206.396 3.51097C210.641 -9.30578 216.229 -21.8931 213.656 -35.6113C213.598 -35.8069 213.497 -35.9871 213.361 -36.1384C213.224 -36.2897 213.055 -36.4083 212.866 -36.4854C212.677 -36.5626 212.473 -36.5962 212.269 -36.5839C212.066 -36.5716 211.868 -36.5137 211.689 -36.4144C201.43 -30.4321 195.906 -15.4028 195.169 -2.84825C194.398 -6.33925 190.957 -16.3042 188.383 -14.1244C182.86 -9.53525 182.204 -0.176727 181.008 15.2296C180.746 -4.33971 172.387 -26.6461 169.257 -12.3051C166.159 -32.8578 166.077 -38.5286 160.75 -43.3472C158.767 -45.1337 155.62 -38.4303 155.44 -35.4146C147.54 -59.5894 129.315 -64.0802 140.083 -37.8403C143.934 -28.449 149.359 -19.8116 154.489 -11.1906C147.933 -18.2054 132.74 -18.271 135.363 -10.9612C137.001 -6.58512 142.967 -3.38911 146.59 -1.01261C150.507 1.56058 154.916 3.90429 158.685 6.80526C156.392 6.5447 154.07 6.81577 151.898 7.59739C149.727 8.37901 147.764 9.65018 146.163 11.3124C144.639 12.9514 143.049 14.4101 144.328 16.5407C146.278 19.8187 152.342 21.1463 155.604 22.2444C162.077 24.5516 167.885 28.4123 172.518 33.4877C166.356 32.8157 160.324 33.2255 154.096 32.783C147.868 32.3404 140.46 30.0623 135.215 34.635C135.096 34.744 135.005 34.8798 134.949 35.0311C134.893 35.1824 134.874 35.3448 134.893 35.5049C134.912 35.6651 134.969 35.8184 135.06 35.9521C135.15 36.0858 135.27 36.1962 135.412 36.274C141.23 39.4536 145.77 37.7982 150.49 38.4702C150.061 38.4026 149.624 38.4026 149.196 38.4702C135.412 41.2073 112.614 41.1089 111.024 53.3684C111.024 53.9912 111.598 54.4665 112.138 54.4829C121.366 54.8762 131.15 55.2205 140.361 53.3848C138.559 54.7288 135.838 57.9575 138.05 58.105C151.162 58.9081 161.553 48.5007 174.108 47.7959C181.467 53.729 184.187 62.9072 187.039 71.561C189.039 77.6252 191.104 83.6074 192.923 89.5897C191.028 88.1605 188.857 87.1393 186.548 86.5904C184.548 86.1642 180.926 86.2134 179.779 88.3604C177.976 91.7203 182.762 95.1621 186.531 97.0961C183.663 98.1451 181.155 100.014 183.811 103.177C186.957 106.881 192.809 109.175 197.332 111.027C193.475 118.704 190.943 126.977 189.842 135.497C181.647 113.814 178.369 158.607 183.63 184.879C176.978 173.494 171.837 161.29 168.339 148.576C169.736 138.03 171.833 127.589 174.616 117.321C176.976 108.339 178.746 99.4235 178.074 90.1141C178.071 89.8974 178.004 89.6864 177.882 89.5071C177.76 89.3277 177.589 89.1877 177.389 89.1042C177.189 89.0207 176.969 88.9974 176.756 89.037C176.543 89.0767 176.346 89.1776 176.189 89.3274C174.072 91.2672 172.328 93.5779 171.043 96.1455C172.829 82.2962 172.813 68.283 173.01 54.3518C173.01 51.0739 163.176 54.8927 161.537 74.6587C160.865 83.0666 160.636 91.4745 160.718 99.8824C159.941 97.6525 159.049 95.4643 158.046 93.3265C155.293 87.4426 151.769 114.305 155.407 133.498C148.245 126.647 148.999 117.55 146.475 95.2277C146.213 92.9004 146.213 89.8191 144.967 87.7212C143.328 84.9677 139.149 83.2469 136.903 86.3773C135.756 88.0163 136.28 89.901 136.33 102.39C133.625 98.1779 134.346 90.7697 132.396 86.4592C131.134 83.6566 128.528 78.7725 125.201 78.0841C118.957 76.7893 120.858 85.9511 122.628 91.9334C115.875 87.2295 110.647 80.9523 104.697 75.2159C101.633 72.2658 94.8637 64.7592 90.0616 66.1196C85.2594 67.4799 86.7836 72.8066 88.8323 75.6584C95.3882 84.8203 104.107 93.556 112.286 101.259C102.304 101.693 92.7253 105.325 84.9642 111.617C84.8481 111.741 84.7653 111.891 84.7233 112.055C84.6813 112.219 84.6817 112.391 84.7243 112.555C84.7669 112.718 84.8503 112.869 84.9668 112.992C85.0833 113.114 85.229 113.205 85.3903 113.256C96.2413 114.851 107.238 115.208 118.17 114.322C115.12 116.165 112.221 118.248 109.5 120.55C108.729 121.255 107.434 122.107 107.287 123.287C106.828 127.057 111.794 126.893 114.351 127.04C122.021 127.499 130.396 125.401 137.87 127.892C146.065 130.679 148.671 139.365 153.621 145.642C138.87 148.92 123.447 141.447 109.368 148.576C105.451 150.559 118.907 154.509 126.856 155.034C94.077 173.275 90.8974 174.341 91.4382 179.618C91.4413 179.869 91.5238 180.112 91.6741 180.312C91.8244 180.512 92.0346 180.66 92.2741 180.733C98.2891 181.798 100.469 179.962 125.496 167.883L123.169 172.046C123.05 172.264 123.004 172.514 123.04 172.76C123.075 173.005 123.189 173.233 123.364 173.408C123.539 173.583 123.767 173.697 124.012 173.732C124.258 173.768 124.508 173.722 124.726 173.603C157.587 155.394 159.554 147.216 172.748 178.242C172.42 178.537 177.222 190.386 177.386 190.78C172.272 182.585 165.913 173.685 156.227 173.177C153.359 173.03 147.589 173.669 147.327 177.406C147.147 180.012 148.851 180.405 162.176 189.944C137.231 186.666 114.22 192.009 112.843 195.467C110.598 201.072 121.89 200.04 124.185 200.187C134.789 200.859 145.492 201.564 155.997 202.22C148.606 204.891 140.034 210.415 144.115 210.415C156.161 210.3 167.765 210.89 178.828 215.036C181.198 235.483 182.424 256.046 182.499 276.629C182.248 293.267 181.077 309.879 178.992 326.388C177.877 335.878 176.665 345.384 175.501 354.873C175.337 356.299 173.026 375.459 172.223 375.475C169.853 375.505 167.513 376.006 165.339 376.95C162.58 378.16 160.177 380.056 158.357 382.457C154.03 388.144 152.424 395.913 150.31 402.584C150.275 402.722 150.291 402.868 150.355 402.995C150.419 403.122 150.526 403.222 150.658 403.276C150.79 403.33 150.937 403.334 151.072 403.288C151.207 403.242 151.32 403.149 151.392 403.026C152.769 400.616 153.99 398.12 155.047 395.553L157.521 395.88C156.931 397.142 156.341 398.421 155.768 399.683L153.49 399.601C153.08 399.601 153.096 400.191 153.49 400.224L155.391 400.469C155.161 400.994 154.915 401.518 154.686 402.108C154.588 402.322 154.883 402.485 154.981 402.289C155.243 401.715 155.522 401.174 155.801 400.65L158.259 400.978L156.62 403.698C154.506 403.452 152.228 403.6 150.589 403.682ZM282.673 45.9111C282.411 35.1431 277.412 24.9487 279.395 14.1151C283.984 21.7527 284.476 30.7343 285.427 39.47C284.46 41.617 283.542 43.7641 282.673 45.9111ZM292.048 83.7713C293.237 86.5349 294.18 89.3977 294.867 92.3268C296.195 97.5223 296.277 103.472 298.145 108.454C298.216 108.631 298.344 108.779 298.509 108.875C298.674 108.97 298.866 109.008 299.054 108.981C299.243 108.955 299.418 108.866 299.55 108.729C299.682 108.592 299.765 108.414 299.784 108.225C299.816 107.679 299.816 107.132 299.784 106.586C299.831 106.544 299.87 106.494 299.899 106.438C300.166 105.146 300.678 103.916 301.407 102.816C302.007 105.042 302.185 107.36 301.931 109.651C300.292 114.568 298.391 119.337 297.014 124.172C295.193 131.242 292.437 138.038 288.819 144.38C288.705 143.659 288.606 143.102 288.541 142.741C286.05 126.45 278.953 108.946 284.656 110.782C285.173 111.03 285.633 111.38 286.011 111.811C286.388 112.242 286.675 112.745 286.853 113.289C288.492 116.567 290.016 119.927 291.606 123.238C289.967 119.812 289.967 115.617 289.672 111.945C289.234 109.368 288.537 106.842 287.59 104.406C285.476 97.4403 284.312 88.5571 287.279 81.6898C289.164 77.1171 290.737 80.8703 292.048 83.8533V83.7713ZM290.524 143.938C290.163 145.577 289.803 147.068 289.393 148.593C289.229 147.199 289.032 145.905 288.852 144.856C288.949 144.936 289.071 144.979 289.196 144.979C289.322 144.979 289.444 144.936 289.541 144.856C289.888 144.571 290.216 144.264 290.524 143.938ZM264.595 140.185C264.186 136.743 262.514 128.909 260.596 131.76C255.677 139.063 251.54 146.864 248.255 155.034C249.615 146.085 253.598 135.481 256.778 126.663C260.842 115.436 263.989 103.554 270.676 93.5723C276.576 88.2785 281.673 82.0995 287.361 76.6254C281.444 84.263 282.837 96.4569 285.902 106.897C285.469 106.546 284.947 106.322 284.395 106.25C283.842 106.178 283.28 106.26 282.772 106.487C282.022 106.893 281.395 107.491 280.954 108.22C280.513 108.949 280.275 109.782 280.264 110.634H280.084C271.037 115.535 266.874 129.744 264.595 140.185ZM242.682 218.249C244.453 196.467 258.203 177.75 272.528 162.016C277.117 156.968 283.673 149.773 280.969 142.348C280.942 142.242 280.894 142.142 280.829 142.054C280.763 141.967 280.68 141.893 280.585 141.838C280.49 141.783 280.386 141.748 280.277 141.734C280.168 141.72 280.058 141.728 279.953 141.758C277.939 142.452 276.079 143.532 274.478 144.938C275.773 141.152 280.51 121.599 281.034 119.386C282.46 126.385 284.443 132.973 285.689 139.824C286.246 142.856 287.983 149.281 287.852 154.198C286.341 159.117 284.45 163.912 282.198 168.539C266.546 200.433 250.271 224.051 242.863 246.472C239.896 255.535 237.782 264.779 234.455 273.744C233.012 277.612 231.685 281.513 230.39 285.414C236.946 253.831 241.158 237.49 242.682 218.249ZM237.913 272.433C246.567 248.521 236.782 258.928 274.429 188.288C281.624 174.816 293.163 158.525 292.736 142.561C292.727 142.412 292.68 142.268 292.6 142.142C292.52 142.015 292.409 141.912 292.277 141.84C291.851 141.561 305.848 108.372 306.487 105.602C307.881 99.6693 305.602 93.0151 305.209 86.9837C304.725 82.7741 304.808 78.5185 305.455 74.3308C306.061 71.3807 306.422 68.66 309.143 72.6919C311.332 76.3181 313.055 80.2058 314.273 84.263C314.6 85.1808 316.239 85.1317 316.108 84.0172C315.19 76.0518 313.027 68.2339 313.65 60.1538C313.735 57.9709 314.138 55.812 314.846 53.7454C315.174 52.8767 315.977 50.6314 316.846 50.1724C318.337 49.3693 317.419 49.566 318.698 50.9264C322.336 54.7779 323.352 64.1856 323.926 69.2828C324.057 70.4792 325.926 70.4628 325.795 69.2828C325.795 68.873 325.647 68.4961 325.581 68.1028C329.761 57.007 332.318 44.3705 342.741 37.5524C345.905 51.6639 334.547 67.0538 327.171 77.8219C326.466 78.8708 327.991 79.8869 328.81 79.1166C330.99 77.0828 332.896 74.7744 334.481 72.2494C337.366 69.0862 341.037 66.1524 345.216 65.5296C343.25 72.3149 338.66 77.9366 333.989 83.1321C330.072 87.459 324.811 91.4909 322.008 96.6536C321.55 97.4731 322.533 98.6859 323.385 98.0468C326.814 95.3088 329.965 92.24 332.793 88.8849C334.055 88.4916 335.3 88.131 336.562 87.7704C333.285 94.3263 327.286 98.9974 322.795 104.717C317.604 110.948 312.897 117.567 308.716 124.516C302.849 135.087 294.326 148.265 293.966 160.688C293.974 160.796 294.019 160.897 294.093 160.975C294.167 161.054 294.265 161.105 294.372 161.12C294.479 161.136 294.588 161.114 294.681 161.059C294.774 161.005 294.845 160.92 294.884 160.819C295.031 160.18 295.244 159.541 295.408 158.902C295.429 158.958 295.464 159.008 295.509 159.047C295.555 159.087 295.609 159.114 295.667 159.127C295.726 159.14 295.787 159.138 295.845 159.122C295.902 159.105 295.955 159.075 295.998 159.033C304.586 151.657 311.83 142.201 318.337 132.973C323.615 125.499 328.548 114.813 337.235 110.683C335.891 119.976 328.581 127.761 322.894 134.678C322.702 134.869 322.595 135.128 322.595 135.399C322.595 135.669 322.702 135.929 322.894 136.12C323.085 136.311 323.344 136.419 323.615 136.419C323.885 136.419 324.145 136.311 324.336 136.12C328.427 132.723 331.869 128.614 334.497 123.992C334.563 124.029 334.641 124.039 334.714 124.021C334.787 124.002 334.85 123.957 334.891 123.893C339.316 117.174 348.003 107.504 356.689 106.848C355.952 114.748 347.314 122.861 342.037 127.909C341.954 128.004 341.907 128.124 341.904 128.25C341.901 128.376 341.942 128.499 342.019 128.598C342.097 128.696 342.206 128.765 342.329 128.792C342.452 128.819 342.58 128.802 342.692 128.745C344.1 127.832 345.452 126.836 346.741 125.762C346.312 126.099 345.906 126.466 345.528 126.86C345.397 126.991 345.528 127.253 345.741 127.122C353.936 121.222 350.215 129.335 349.248 130.761C348.336 132.085 347.269 133.296 346.069 134.366C343.163 136.945 339.981 139.194 336.579 141.07C331.006 144.348 325.106 146.872 319.403 149.904C281.198 170.161 275.724 205.858 274.069 210.873C289.229 195.828 300.653 167.687 311.765 160.737C308.143 171.243 303.996 181.569 300.423 192.091C298.211 194.664 296.178 197.401 294.13 200.105C293.916 200.384 294.408 200.761 294.621 200.466C296.555 198.008 298.506 195.549 300.292 192.976C300.336 193.047 300.398 193.106 300.471 193.146C300.544 193.187 300.626 193.209 300.71 193.209C300.794 193.209 300.876 193.187 300.949 193.146C301.022 193.106 301.084 193.047 301.128 192.976C302.865 189.698 304.406 186.174 305.93 182.7C305.988 182.754 306.064 182.784 306.143 182.784C306.222 182.784 306.299 182.754 306.356 182.7C315.371 172.554 332.924 158.918 329.663 168.211C328.892 170.374 325.123 173.128 323.549 174.767L317.452 181.323C313.633 185.453 309.765 189.518 306.356 194.074C305.881 194.68 306.864 195.32 307.373 194.861C310.192 192.304 312.896 189.583 315.567 186.797C315.601 186.813 315.637 186.821 315.674 186.821C315.711 186.821 315.747 186.813 315.78 186.797C317.698 186.191 328.368 182.486 327.827 186.453C327.548 188.485 320.124 192.107 318.272 193.173C312.049 196.535 305.622 199.507 299.03 202.072C268.447 214.922 269.873 214.02 246.895 288.184C237.552 318.308 226.981 348.383 219.032 378.901C217.868 378.327 216.656 377.819 215.443 377.36C215.537 377.344 215.621 377.293 215.679 377.217C215.737 377.141 215.764 377.045 215.754 376.95C215.754 376.606 215.754 376.262 215.754 375.918C216.049 375.016 216.361 374.115 216.656 373.213C216.951 374.295 217.278 375.36 217.623 376.491C217.672 376.597 217.757 376.682 217.863 376.73C217.969 376.779 218.089 376.788 218.201 376.757C218.313 376.725 218.41 376.655 218.476 376.558C218.541 376.462 218.57 376.345 218.557 376.229C218.557 375.656 218.409 375.098 218.311 374.59C218.311 374.459 218.212 374.426 218.114 374.41C217.868 373.361 217.622 372.296 217.327 371.23C217.524 370.624 217.705 370.017 217.901 369.411C218.098 370.296 218.278 371.214 218.491 372.115C218.535 372.244 218.622 372.354 218.738 372.426C218.853 372.498 218.99 372.528 219.125 372.511C219.26 372.494 219.385 372.43 219.479 372.331C219.572 372.232 219.629 372.104 219.638 371.968C219.638 371.132 219.638 370.329 219.638 369.477C219.638 369.407 219.611 369.34 219.562 369.291C219.512 369.242 219.446 369.214 219.376 369.214C219.307 369.214 219.24 369.242 219.191 369.291C219.142 369.34 219.114 369.407 219.114 369.477C218.934 368.706 218.77 367.936 218.606 367.166C218.884 366.215 219.163 365.264 219.458 364.314C219.671 365.166 219.868 365.953 220.097 366.887C220.229 367.395 221.097 367.461 221.195 366.887C221.359 365.854 221.54 364.838 221.687 363.806C221.691 363.742 221.673 363.679 221.636 363.627C221.599 363.575 221.546 363.537 221.484 363.52C221.423 363.503 221.358 363.507 221.299 363.532C221.241 363.557 221.193 363.602 221.163 363.658C221.015 364.068 220.868 364.461 220.72 364.887C220.491 364.052 220.245 363.249 220.015 362.413C220.409 361.101 220.786 359.774 221.146 358.479C221.409 359.331 221.654 360.2 221.949 361.052C221.981 361.172 222.054 361.276 222.157 361.346C222.26 361.415 222.384 361.444 222.507 361.428C222.63 361.412 222.743 361.352 222.824 361.258C222.905 361.165 222.95 361.045 222.949 360.921C222.949 360.331 222.949 359.757 222.949 359.167C222.943 359.113 222.921 359.061 222.886 359.019C222.851 358.977 222.805 358.946 222.752 358.931C222.7 358.915 222.644 358.915 222.591 358.931C222.539 358.947 222.492 358.978 222.457 359.02C222.228 358.119 221.999 357.184 221.736 356.283C222.015 355.316 222.277 354.349 222.539 353.366L222.736 354.152C222.884 354.677 223.818 354.759 223.916 354.152C224.047 353.251 224.26 352.415 224.424 351.53C224.424 351.235 224.031 350.989 223.883 351.317C223.736 351.645 223.605 351.89 223.457 352.218C223.457 351.858 223.261 351.481 223.162 351.137L223.998 347.859C224.088 347.846 224.17 347.801 224.227 347.731C224.285 347.661 224.314 347.572 224.309 347.482C224.319 347.312 224.319 347.143 224.309 346.973C224.899 344.679 225.506 342.384 226.063 340.073C226.164 340.037 226.249 339.966 226.303 339.873C226.357 339.78 226.376 339.671 226.358 339.565C226.349 339.44 226.349 339.314 226.358 339.188C229.636 325.634 232.504 311.965 235.078 298.296C232.439 311.195 229.308 323.946 225.899 336.632C225.489 334.796 225.047 332.944 224.621 331.108C224.473 330.453 223.424 330.731 223.588 331.403C224.146 333.845 224.637 336.32 225.326 338.746C224.85 340.549 224.342 342.335 223.85 344.122C223.474 342.794 223.015 341.467 222.67 340.205C222.618 340.086 222.526 339.99 222.409 339.934C222.292 339.879 222.159 339.866 222.034 339.9C221.91 339.934 221.801 340.011 221.728 340.118C221.655 340.225 221.623 340.355 221.638 340.483C222.162 342.384 222.539 344.466 223.277 346.367C223.064 347.072 222.867 347.777 222.67 348.481C221.769 345.302 220.851 342.139 219.983 338.943C219.947 338.839 219.874 338.754 219.778 338.703C219.681 338.652 219.569 338.64 219.464 338.669C219.359 338.699 219.269 338.767 219.213 338.861C219.157 338.954 219.139 339.066 219.163 339.172C220.179 342.958 221.113 346.777 222.08 350.645C221.802 351.661 221.507 352.677 221.195 353.71C220.114 350.104 218.901 346.531 217.917 342.942C217.887 342.88 217.835 342.831 217.771 342.803C217.708 342.775 217.637 342.771 217.57 342.79C217.504 342.81 217.446 342.852 217.408 342.91C217.37 342.967 217.353 343.037 217.36 343.106C218.508 347.285 219.491 351.579 220.638 355.791C220.261 357.086 219.901 358.364 219.524 359.643C218.562 356.234 217.606 352.825 216.656 349.416C216.623 349.344 216.566 349.287 216.494 349.254C216.423 349.222 216.342 349.216 216.266 349.237C216.191 349.259 216.126 349.307 216.083 349.373C216.04 349.439 216.022 349.518 216.033 349.596C217.016 353.529 218.005 357.474 218.999 361.429C218.737 362.314 218.458 363.199 218.196 364.084C217.524 361.134 216.836 358.168 216.164 355.201C216.016 354.562 215.049 354.841 215.18 355.48C215.967 359.118 216.721 362.773 217.508 366.412C217.295 367.117 217.098 367.821 216.885 368.526C216.229 366.231 215.557 363.953 214.951 361.659C214.901 361.55 214.813 361.462 214.704 361.411C214.596 361.36 214.472 361.35 214.357 361.381C214.241 361.413 214.14 361.484 214.072 361.583C214.003 361.682 213.972 361.801 213.984 361.921C214.754 364.855 215.443 367.821 216.213 370.755L215.18 374.164C214.186 370.952 213.165 367.75 212.116 364.56C212.116 363.38 211.984 362.183 211.903 361.019C214.918 345.646 228.554 298.263 237.913 272.466V272.433ZM221.359 380.343L220.851 380.064L221.097 379.376C221.158 379.716 221.246 380.05 221.359 380.376V380.343ZM214.279 375.59C214.115 376.065 213.984 376.541 213.836 377.032L212.394 376.508C212.247 373.492 212.034 370.46 211.837 367.428C212.624 370.116 213.443 372.82 214.279 375.59ZM220.605 298.706C220.884 297.067 221.179 295.313 221.458 293.625C221.963 295.328 222.638 296.975 223.474 298.542C223.51 298.617 223.573 298.676 223.651 298.706C223.729 298.736 223.815 298.736 223.893 298.704C223.97 298.673 224.032 298.613 224.067 298.537C224.102 298.462 224.107 298.375 224.08 298.296C223.578 296.338 222.886 294.433 222.015 292.609L221.72 291.855L222.507 287.118C222.507 287.118 222.507 287.233 222.507 287.299C222.912 288.42 223.388 289.515 223.933 290.577C223.991 290.682 224.087 290.762 224.201 290.802C224.315 290.841 224.44 290.837 224.552 290.79C224.663 290.744 224.753 290.658 224.805 290.549C224.858 290.44 224.868 290.316 224.834 290.2C224.511 289.079 224.106 287.983 223.621 286.922C223.578 286.823 223.51 286.738 223.425 286.672C223.34 286.607 223.24 286.564 223.133 286.548C223.027 286.531 222.919 286.542 222.818 286.579C222.717 286.615 222.627 286.677 222.556 286.758C223.048 283.791 223.556 280.808 224.047 277.842C224.845 280.53 225.697 283.207 226.604 285.873C226.626 285.933 226.664 285.987 226.714 286.027C226.763 286.068 226.823 286.095 226.887 286.105C226.95 286.115 227.015 286.108 227.075 286.085C227.135 286.061 227.187 286.022 227.227 285.971C225.391 294.264 224.08 300.181 223.162 304.393C223.162 303.77 223.015 303.164 222.933 302.541C222.933 302.213 222.376 302.312 222.359 302.541C222.359 303.262 222.359 304 222.359 304.737C221.687 303.098 221.032 301.558 220.343 299.984L220.605 298.706ZM217.524 317.03C217.786 315.522 218.032 314.03 218.295 312.522C218.622 313.391 218.95 314.26 219.294 315.096C219.507 315.587 220.409 315.62 220.36 314.948C220.311 314.276 220.261 313.309 220.13 312.44C220.13 312.145 219.606 312.162 219.556 312.44C219.507 312.719 219.556 312.653 219.556 312.768C219.278 311.998 218.983 311.244 218.671 310.49C219.114 307.753 219.589 305.032 220.048 302.295C220.835 304.246 221.687 306.18 222.441 308.114C219.163 322.864 222.802 306.376 218.557 324.503C215.154 334.642 212.658 345.063 211.099 355.644C210.575 348.968 209.985 342.313 209.329 335.681C209.329 335.419 210.526 329.125 212.034 320.488C212.853 322.389 213.673 324.29 214.459 326.191C213.328 332.583 212.263 338.992 211.509 345.4C211.427 346.056 212.509 346.187 212.64 345.548C214.377 337.877 215.377 329.977 216.688 322.209C216.688 321.766 216.852 321.291 216.934 320.816C217.01 320.86 217.096 320.882 217.184 320.882C217.272 320.881 217.358 320.857 217.433 320.811C217.509 320.766 217.57 320.702 217.612 320.625C217.654 320.548 217.675 320.461 217.672 320.373C217.639 319.171 217.59 318.04 217.524 316.98V317.03ZM212.23 318.931C212.624 316.735 213.033 314.391 213.459 311.998C214.23 314.096 215.099 316.194 215.803 318.292L214.771 323.913C214.736 323.893 214.696 323.882 214.656 323.882C214.616 323.882 214.576 323.893 214.541 323.913C213.787 322.209 213.001 320.553 212.23 318.882V318.931ZM217.393 310.031L216.213 316.39L213.787 310.424C214.164 308.212 214.558 305.95 214.967 303.688L217.393 310.031ZM261.039 83.3452C257.876 94.0313 253.483 104.39 250.156 115.043C232.865 170.309 230.193 210.201 211.771 306.032C211.247 308.802 210.706 311.572 210.132 314.342C209.69 313.375 209.264 312.408 208.805 311.457C208.674 311.211 208.231 311.457 208.346 311.654C208.87 312.932 209.428 314.178 209.985 315.44C209.575 317.685 209.165 319.93 208.838 322.176C209.116 317.259 207.887 312.637 207.985 307.769C209.149 245.669 226.407 139.431 226.702 136.513C227.604 128.171 228.341 119.698 228.948 111.322V110.618C229.012 110.635 229.08 110.635 229.145 110.618C233.176 107.913 235.176 103.423 237.339 99.2268C240.794 92.4506 245.859 86.6258 252.09 82.2635C256.423 79.242 260.566 75.9579 264.497 72.4296C263.09 75.9945 261.913 79.646 260.973 83.3616L261.039 83.3452ZM208.592 214.463C207.182 226.132 205.838 237.785 204.625 249.455C204.014 255.18 203.413 260.911 202.823 266.648C202.577 268.959 202.249 271.319 201.954 273.695C201.38 269.434 200.839 265.746 200.315 262.501C200.443 262.493 200.563 262.439 200.654 262.348C200.745 262.258 200.799 262.137 200.807 262.009C201.528 255.371 201.544 248.635 202.069 241.965C202.593 235.294 203.282 228.214 204.101 221.379C205.74 207.481 208.084 193.697 210.739 179.979C210.739 179.864 210.591 179.831 210.575 179.979C207.385 193.24 204.895 206.66 203.118 220.183C202.233 227.023 201.49 233.885 200.889 240.768C200.397 246.685 199.79 252.716 199.741 258.682C199.512 257.224 199.315 255.847 199.135 254.585C202.003 236.556 196.873 233.409 207.526 177.422C210.886 159.71 213.076 141.795 214.082 123.795C215.789 114.633 216.96 105.379 217.59 96.08C218.136 89.5241 218.426 82.8972 218.458 76.1992C218.638 70.672 218.49 65.139 218.016 59.6293C218.191 57.2515 218.235 54.8659 218.147 52.4833C218.135 52.2989 218.073 52.1212 217.967 51.9701C217.86 51.8189 217.714 51.7003 217.544 51.6273C217.374 51.5543 217.188 51.5298 217.005 51.5565C216.822 51.5832 216.65 51.6601 216.508 51.7786C216.441 51.8588 216.37 51.9354 216.295 52.0081C216.181 51.8217 216.043 51.6509 215.885 51.5C215.662 51.2793 215.427 51.0713 215.18 50.8772C214.864 49.5689 214.379 48.3073 213.738 47.1239C213.541 44.1246 212.886 41.0762 212.443 38.126C212.443 37.9621 212.132 37.9949 212.148 38.126C212.493 40.7156 212.689 43.3871 213.148 45.9767C212.001 43.8788 210.673 41.8629 209.87 39.9125C208.805 37.536 207.166 34.2252 207.543 31.5046C208.018 28.2266 210.559 28.5544 212.46 30.3245C213.733 31.5657 214.836 32.9712 215.738 34.5039C215.885 39.3389 215.557 44.4852 216.443 49.2546C216.443 49.566 216.918 49.4513 216.95 49.2546C217.067 44.6092 216.815 39.9618 216.197 35.3561C217.491 37.536 218.557 39.8961 219.573 42.0431C220.179 43.3379 220.835 44.6327 221.49 45.9275C221.352 48.1106 221.352 50.3002 221.49 52.4833C221.49 52.5703 221.525 52.6537 221.587 52.7152C221.648 52.7766 221.731 52.8112 221.818 52.8112C221.905 52.8112 221.989 52.7766 222.05 52.7152C222.112 52.6537 222.146 52.5703 222.146 52.4833C222.253 50.7313 222.253 48.9743 222.146 47.2223C223.785 50.5002 225.424 53.7781 227.063 56.8922C227.702 63.4481 228.03 70.0039 228.505 76.5598L228.407 82.3126C228.407 85.7545 228.309 89.2127 228.276 92.6709C228.276 93.6707 228.276 94.6705 228.194 95.703C227.886 94.4334 227.481 93.1895 226.981 91.9825C226.981 91.9825 226.834 91.9825 226.85 91.9825C228.751 100.735 227.391 109.323 226.161 118.091C224.998 126.548 224.424 135.071 223.179 143.528C221.933 151.985 208.559 225.673 205.986 306.147C204.724 295.838 203.626 287.249 202.708 280.005C203.216 275.99 203.396 271.81 203.806 267.926L205.576 250.11C206.756 238.261 207.822 226.362 208.854 214.479C208.805 214.348 208.51 214.348 208.477 214.545L208.592 214.463ZM198.528 250.045C194.366 222.756 190.252 203.613 191.973 181.667C195.709 169.588 199.168 157.558 205.347 146.446C205.494 148.085 205.642 149.592 205.756 151.182C206.073 155.553 206.275 159.923 206.363 164.294C206.363 167.244 206.363 170.26 206.363 173.259C203.724 188.616 201.053 200.253 199.397 219.281C198.299 229.361 199.201 239.965 198.414 250.127L198.528 250.045ZM211.64 127.991C211.64 127.991 211.64 127.909 211.64 127.86V128.105H211.476L211.64 127.991ZM211.755 107.422C211.624 106.291 211.411 105.16 211.181 104.029C211.525 103.373 211.87 102.701 212.197 102.013C211.902 103.898 211.755 105.684 211.591 107.504L211.755 107.422ZM213.525 101.652C214.017 94.064 214.59 86.4756 214.885 78.8708C215.23 77.7235 215.492 76.7893 215.557 76.396C216.18 73.3967 216.754 70.4137 217.196 67.4144C217.295 70.3318 217.393 73.2491 217.344 76.1501C217.224 82.5748 216.901 88.9996 216.377 95.4244C215.885 101.062 215.213 106.668 214.394 112.273C214.257 112.299 214.115 112.296 213.979 112.264C213.843 112.233 213.715 112.174 213.603 112.091C213.49 112.008 213.397 111.903 213.327 111.782C213.257 111.661 213.213 111.527 213.197 111.388C213.197 110.028 213.197 108.684 213.197 107.323C213.132 105.504 213.23 103.619 213.361 101.734L213.525 101.652ZM213.083 85.6889C213.181 85.1644 213.361 84.3777 213.591 83.5255C213.591 84.0335 213.492 84.5416 213.459 85.0333C213.24 85.2475 213.057 85.4967 212.919 85.7709L213.083 85.6889ZM265.53 35.3726C267.005 39.4208 269.512 42.3218 271.594 45.8947C273.033 48.7747 273.645 51.997 273.364 55.204C273.01 54.4292 272.41 53.7934 271.657 53.3961C270.904 52.9987 270.04 52.8622 269.201 53.0078C265.923 53.1389 262.448 55.5646 259.547 58.564C262.737 51.2305 264.702 43.4239 265.366 35.4545L265.53 35.3726ZM241.863 48.4843C243.865 53.0988 245.264 57.9518 246.026 62.9236C246.057 63.0364 246.127 63.1348 246.222 63.2022V63.317C246.21 63.4076 246.231 63.4996 246.282 63.5759C246.332 63.6522 246.409 63.7075 246.497 63.7316C246.585 63.7556 246.679 63.7468 246.761 63.7067C246.843 63.6666 246.908 63.598 246.944 63.5136C250.533 54.5649 251.959 44.1738 257.81 36.2904C258.548 35.2906 262.334 30.7179 263.923 31.6685C265.12 32.3732 262.596 43.5674 262.284 44.9113C260.645 51.8278 257.499 58.2034 254.876 64.7756C254.565 65.3071 254.28 65.8542 254.024 66.4146C253.985 66.5236 253.989 66.6433 254.034 66.7497C254.08 66.856 254.164 66.9412 254.27 66.9882C254.345 67.1175 254.452 67.2249 254.582 67.2996C254.711 67.3742 254.858 67.4134 255.007 67.4134C255.157 67.4134 255.304 67.3742 255.433 67.2996C255.563 67.2249 255.67 67.1175 255.745 66.9882C256.269 65.8737 256.777 64.7592 257.286 63.7103C260.793 59.6457 266.185 54.2371 269.676 55.0402C276.724 56.6792 263.989 69.9056 261.76 72.0035C255.204 78.1988 246.55 82.2962 240.847 89.5405C240.126 90.4747 239.454 91.4581 238.798 92.4579C236.156 94.2148 234.105 96.7282 232.914 99.6693C232.914 99.7677 233.045 99.8332 233.094 99.6693C234.484 97.1971 236.286 94.98 238.421 93.1134C235.143 98.2926 232.832 104.045 229.259 109.044C229.374 107.159 229.423 105.258 229.39 103.373C229.464 103.356 229.532 103.317 229.584 103.261C229.636 103.206 229.672 103.137 229.685 103.062C229.957 101.438 230.078 99.7917 230.046 98.1451C230.064 98.1612 230.087 98.1701 230.111 98.1701C230.136 98.1701 230.159 98.1612 230.177 98.1451C233.127 95.1942 235.794 91.9731 238.142 88.5243C238.257 88.3604 238.028 88.1965 237.897 88.3277C234.983 91.2986 232.355 94.5361 230.046 97.9976C230.046 96.5061 230.046 95.0474 230.046 93.5723C230.127 93.5315 230.196 93.4681 230.242 93.3896C230.289 93.3112 230.311 93.221 230.308 93.1298C230.308 92.9659 230.308 92.7693 230.308 92.6053C233.347 90.1734 236 87.2943 238.175 84.0663C240.404 80.3131 239.404 77.0024 238.011 73.0689C235.763 66.9569 234.722 60.4669 234.946 53.9585C235.061 51.6639 234.946 47.1895 235.684 45.19C237.257 40.4042 240.584 46.37 241.699 48.5662L241.863 48.4843ZM214.459 5.87109C215.41 3.75682 217.164 4.7402 218.688 6.33C218.895 11.9958 219.443 17.644 220.327 23.2441C220.327 23.408 220.589 23.3589 220.589 23.2441C220.376 17.6385 219.829 12.0506 218.95 6.51026C219.82 7.47258 220.589 8.52155 221.245 9.6407C222.726 12.605 223.991 15.6724 225.031 18.8189C225.876 21.2703 226.974 23.6267 228.309 25.8501C228.309 27.5874 228.309 29.3247 228.309 31.062C228.174 32.5803 228.213 34.1088 228.423 35.6184C228.442 35.6686 228.476 35.7119 228.52 35.7424C228.563 35.773 228.616 35.7893 228.669 35.7893C228.723 35.7893 228.775 35.773 228.819 35.7424C228.863 35.7119 228.896 35.6686 228.915 35.6184C229.139 34.1102 229.183 32.5807 229.046 31.062C229.046 29.587 229.046 28.1283 229.046 26.6696C229.753 27.6092 230.619 28.4188 231.603 29.0625C231.747 29.1475 231.915 29.1823 232.081 29.1613C232.247 29.1403 232.401 29.0647 232.519 28.9464C232.638 28.8282 232.713 28.674 232.734 28.5081C232.755 28.3421 232.721 28.1739 232.636 28.0299C230.823 25.1066 229.318 22.0033 228.145 18.7698C228.145 15.2952 227.702 11.755 227.555 8.32954C227.555 8.05092 227.112 8.05092 227.128 8.32954C227.227 11.0502 227.129 13.8365 227.292 16.6227C227.014 15.9508 226.768 15.2788 226.506 14.6068C225.528 8.03193 225.451 1.35456 226.276 -5.24113C226.645 -9.08573 227.414 -12.8814 228.571 -16.5664C229.008 -18.3985 229.75 -20.1439 230.767 -21.7292C232.537 -23.9582 232.406 -24.0401 233.734 -21.8931C236.044 -18.0907 234.979 -8.78132 235.127 -4.43805C235.487 6.28082 235.258 17.0652 236.077 27.7677C236.077 27.8851 236.124 27.9976 236.207 28.0806C236.29 28.1636 236.403 28.2102 236.52 28.2102C236.637 28.2102 236.75 28.1636 236.833 28.0806C236.916 27.9976 236.962 27.8851 236.962 27.7677C237.224 24.3423 237.372 20.9168 237.454 17.475C237.629 16.5911 237.899 15.7285 238.257 14.9018C239.273 12.7711 242.6 8.77204 245.419 9.68987C248.238 10.6077 247.599 14.6068 247.304 17.0488C246.463 21.9962 244.992 26.8157 242.928 31.3898C243.223 28.6691 243.502 25.9484 243.797 23.195C243.797 22.8836 243.338 22.8836 243.289 23.195C242.945 26.4729 242.568 29.8328 242.24 33.1599C241.715 34.4547 241.257 35.7659 240.798 37.0607C240.798 32.2421 240.797 27.3908 240.666 22.5558C240.666 22.4862 240.639 22.4196 240.59 22.3704C240.54 22.3212 240.474 22.2935 240.404 22.2935C240.335 22.2935 240.268 22.3212 240.219 22.3704C240.17 22.4196 240.142 22.4862 240.142 22.5558C240.142 27.7349 239.994 32.9305 239.978 38.1096C239.29 36.9132 238.683 36.9131 238.339 37.4376C238.339 36.9459 238.339 36.4543 238.339 35.979C238.339 33.8811 238.47 31.7832 238.536 29.6853C238.536 29.3903 238.093 29.3903 238.077 29.6853C237.957 31.7832 237.826 33.8811 237.684 35.979C237.684 36.8476 237.536 37.7327 237.487 38.6341C237.098 39.1578 236.742 39.7052 236.421 40.2731C236.421 36.2904 236.159 32.1929 236.028 28.3085C236.02 28.291 236.008 28.2761 235.992 28.2656C235.976 28.2551 235.957 28.2495 235.938 28.2495C235.919 28.2495 235.9 28.2551 235.884 28.2656C235.868 28.2761 235.856 28.291 235.848 28.3085C235.7 32.7502 235.307 37.454 235.553 41.9612C230.964 52.0736 233.455 65.2673 236.389 75.5928C238.355 82.5257 235.012 86.9673 230.587 91.5073C230.587 88.3441 230.587 85.1644 230.587 82.0012C231.57 69.8073 231.259 55.368 227.309 43.4363L227.719 44.1246C228.014 44.6327 228.899 44.3049 228.686 43.7313C226.08 36.8312 222.261 30.4556 219.294 23.7194C217.901 20.5398 214.509 13.394 214.377 8.69012C214.394 7.78789 214.366 6.88535 214.295 5.98578L214.459 5.87109ZM213.312 15.7049C215.82 24.162 220.212 31.9799 224.67 39.6011C225.457 43.0757 226.031 46.5339 226.506 49.9921C225.965 48.894 225.342 47.8287 224.719 46.8125C222.605 43.4199 221.015 39.765 219.048 36.2084C217.311 33.0452 214.263 26.8827 209.985 26.7024C209.244 26.5783 208.483 26.6663 207.79 26.9563C207.097 27.2463 206.5 27.7265 206.068 28.3414C206.658 26.9646 207.204 25.5551 207.707 24.1128C209.652 20.6883 211.297 17.102 212.624 13.394C212.722 14.4757 212.968 15.2623 213.148 15.8688L213.312 15.7049ZM190.153 104.57C188.908 103.849 186.564 102.783 185.876 101.456C184.499 98.7679 188.793 98.3909 190.661 98.0303C191.907 97.8009 191.661 96.1291 190.661 95.7686C189.022 95.1621 180.582 90.95 183.139 88.6391C185.695 86.3281 190.809 90.1469 194.218 92.3431C195.447 96.7028 196.545 101.112 197.381 105.635C197.496 106.324 198.578 106.143 198.578 105.471C198.439 101.47 197.89 97.494 196.939 93.6051C197.007 93.5629 197.066 93.5064 197.11 93.4394C197.154 93.3725 197.184 93.2968 197.196 93.2174C197.209 93.138 197.204 93.0568 197.182 92.9794C197.16 92.9021 197.122 92.8304 197.07 92.7693C196.926 92.581 196.773 92.4004 196.611 92.2284C196.021 89.8519 195.3 87.5081 194.546 85.1644C192.645 75.3306 190.235 65.4968 187.99 55.6629C187.99 55.5646 187.793 55.6629 187.826 55.6629C189.629 64.202 191.251 72.7902 193.153 81.3129C191.514 76.7074 189.875 72.2002 188.236 67.7422C185.712 60.4324 182.68 50.8608 175.124 47.2551C177.003 47.2153 178.881 47.4079 180.713 47.8287C180.871 47.8623 181.036 47.8405 181.18 47.7668C181.324 47.6931 181.439 47.572 181.504 47.424C181.569 47.276 181.582 47.1099 181.539 46.9538C181.497 46.7977 181.402 46.661 181.27 46.5667C171.699 39.388 152.047 54.8762 141.935 55.7121C139.657 55.8924 137.706 56.1547 143.82 52.1556C145.18 51.8114 147.425 51.4016 146.212 50.6477C146.264 50.5849 146.292 50.5066 146.294 50.4255C146.295 50.3444 146.269 50.2653 146.219 50.2009C146.17 50.1364 146.101 50.0905 146.022 50.0705C145.944 50.0504 145.861 50.0575 145.787 50.0905L144.311 50.7789C135.913 52.0569 127.409 52.5016 118.924 52.1064C115.171 51.9753 112.204 51.8933 116.088 48.5171C123.447 42.0923 157.931 38.5193 152.49 37.2245C147.737 36.0773 141.771 36.7984 137.87 34.93C143.443 32.1274 150.982 34.93 158.226 34.6186C165.028 34.3891 170.191 33.4877 176.255 36.7165L177.14 37.6835C176.058 29.0133 167.306 23.9653 159.767 20.9168C156.718 19.6876 151.179 19.1959 148.819 16.7866C146.852 14.7707 146.819 13.7381 148.491 11.6238C150.884 8.59174 154.62 7.70671 158.325 7.64115C159.129 7.63234 159.933 7.66516 160.734 7.73949L161.144 8.0509C161.252 8.14238 161.388 8.19418 161.53 8.1977C161.672 8.20122 161.81 8.15624 161.923 8.07025C162.036 7.98427 162.116 7.86241 162.15 7.72478C162.184 7.58715 162.17 7.442 162.111 7.31334C161.029 4.83849 157.866 3.18314 155.719 1.79002C147.753 -3.38913 132.363 -12.0429 139.181 -14.7308C141.673 -15.7142 145.573 -14.7308 148.048 -14.1408C152.309 -13.2393 154.801 -10.5514 157.423 -7.12598C157.62 -6.79819 158.095 -7.12599 157.948 -7.43739C152.588 -19.9755 144.016 -31.7433 140.591 -45.0026C137.772 -55.9181 142.59 -60.6711 155.522 -29.7438C155.623 -29.5787 155.776 -29.4515 155.957 -29.3816C156.138 -29.3118 156.336 -29.3032 156.522 -29.3572C156.709 -29.4111 156.872 -29.5247 156.987 -29.6804C157.102 -29.8361 157.163 -30.0253 157.161 -30.2191C156.997 -31.0549 156.784 -31.858 156.554 -32.7759C156.62 -32.7998 156.678 -32.8416 156.722 -32.8966C156.765 -32.9516 156.792 -33.0176 156.8 -33.0873C157.063 -34.9557 157.456 -38.25 158.882 -39.6431C165.634 -46.5104 164.34 -13.4196 169.961 2.00309C170.191 2.6259 171.272 2.6095 171.207 1.83918C170.961 -1.30764 170.584 -4.43807 170.174 -7.58489C170.174 -7.58489 170.289 -7.69961 170.289 -7.78156C170.354 -10.1141 171.063 -12.3832 172.338 -14.3374C178.894 -2.97938 176.861 11.001 179.68 23.3589C179.828 24.0472 180.844 24.1456 180.959 22.7852C181.012 26.943 181.731 31.0655 183.089 34.9956C183.122 35.1129 183.2 35.2125 183.306 35.2725C183.412 35.3324 183.538 35.3478 183.655 35.3152C183.772 35.2826 183.872 35.2047 183.932 35.0987C183.992 34.9926 184.007 34.8671 183.974 34.7497C181.401 24.4406 185.45 -11.6004 189.367 -12.3379C190.678 -12.5674 192.645 -5.24116 192.891 -4.04471C194.153 1.13443 194.366 6.4611 195.283 11.6894C195.283 12.1319 195.824 12.1647 196.136 11.9681C194.782 14.9409 193.6 17.9889 192.595 21.0971C191.809 17.2127 190.498 13.3284 189.514 9.62429C189.496 9.58047 189.463 9.54472 189.42 9.52361C189.378 9.5025 189.329 9.49747 189.283 9.50945C189.237 9.52143 189.197 9.54961 189.17 9.58878C189.143 9.62796 189.132 9.6755 189.137 9.72263C190.137 13.8528 190.875 18.2289 192.218 22.2935C191.809 23.5719 191.432 24.8503 191.071 26.1779C190.268 21.9166 189.137 17.6716 188.236 13.5086C188.236 13.2628 187.81 13.3612 187.842 13.607C188.777 18.2945 189.481 23.1786 190.629 27.866C190.268 29.2592 189.957 30.6687 189.662 32.0782C189.301 30.4392 188.94 28.9314 188.629 27.3744C187.695 22.7361 186.728 18.1142 185.826 13.4595C185.826 13.1972 185.351 13.312 185.4 13.5906C186.253 18.0158 187.039 22.4574 187.908 26.8991C188.383 29.3411 188.744 31.816 189.203 34.3727C188.711 37.0607 188.301 39.765 188.006 42.4693C186.412 36.1544 185.224 29.7438 184.45 23.2769C184.45 22.9983 183.991 22.9983 184.024 23.2769C184.794 31.8651 185.843 41.3056 189.072 49.2874C189.17 49.5332 189.531 49.4349 189.465 49.1891C189.104 47.419 188.711 45.6653 188.318 43.9443C188.613 41.1909 189.006 38.4702 189.481 35.7495C189.778 37.2317 190.15 38.6978 190.596 40.1419C190.596 40.3386 191.022 40.3222 191.022 40.1419C190.814 37.9082 190.458 35.6908 189.957 33.5041C190.268 32.029 190.596 30.5867 190.956 29.1444C191.137 29.8328 191.284 30.5212 191.481 31.1931C191.481 31.4062 191.891 31.3734 191.874 31.1931C191.727 30.0131 191.53 28.833 191.333 27.653C191.71 26.2107 192.12 24.8012 192.546 23.3753V23.5392C192.645 23.8014 192.989 23.6867 192.956 23.408C192.923 23.1294 192.825 22.8016 192.776 22.4902C193.868 18.8845 195.147 15.3006 196.611 11.7386C196.611 11.5911 196.496 11.5419 196.382 11.5911C196.515 8.80487 196.471 6.01295 196.25 3.23232C197.348 -9.28941 201.97 -24.876 211.804 -33.3003C215.541 -19.7297 205.494 -5.55255 203.904 7.85423C203.904 8.16563 203.658 8.39507 203.806 8.6573V9.09986C203.806 9.64072 204.609 9.73904 204.74 9.23096L205.183 7.69032C206.771 4.91497 209.274 2.77727 212.263 1.64252C212.263 2.11782 212.263 2.60952 212.263 3.08482C211.69 3.99804 211.313 5.02002 211.155 6.08631C210.997 7.15261 211.062 8.24009 211.345 9.28012C209.936 14.7051 207.248 19.9334 205.543 25.129C205.498 25.2642 205.506 25.4112 205.563 25.5414C205.621 25.6717 205.725 25.7759 205.855 25.8337C197.66 42.7479 187.515 44.0263 193.907 73.5769C195.349 80.2639 196.89 87.7376 200.594 93.6051C200.651 93.7011 200.74 93.7731 200.846 93.8076C200.953 93.8421 201.068 93.8367 201.17 93.7925C201.273 93.7483 201.355 93.6683 201.403 93.5674C201.451 93.4666 201.46 93.3518 201.43 93.2446C198.987 85.1317 196.775 76.8549 195.07 68.66C191.104 49.566 198.922 40.9942 201.249 37.2574C202.867 34.69 204.312 32.0181 205.576 29.2592C202.626 35.8151 208.1 42.8135 212.296 49.0251V49.8119C212.848 50.7249 213.497 51.5765 214.23 52.3522C214.323 52.4408 214.445 52.4931 214.574 52.4997L215.033 53.3684C212.079 56.9825 210.225 61.3682 209.69 66.0049C209.307 62.9249 208.255 59.9659 206.609 57.3347C206.5 57.1585 206.348 57.013 206.167 56.912C205.987 56.8111 205.783 56.7581 205.576 56.7581C205.369 56.7581 205.165 56.8111 204.985 56.912C204.804 57.013 204.652 57.1585 204.544 57.3347C197.725 66.2835 197.709 81.3456 201.118 91.622C201.161 91.7784 201.265 91.9113 201.407 91.9912C201.548 92.0711 201.716 92.0916 201.872 92.0481C202.029 92.0046 202.161 91.9008 202.241 91.7594C202.321 91.618 202.342 91.4507 202.298 91.2942C200.938 81.4604 200.381 69.2009 205.576 60.1538C208.625 65.8574 208.002 72.9214 209.165 79.1658C209.378 80.3623 211.23 80.0673 211.23 78.9036C211.23 70.6268 211.132 62.1861 216.049 55.4499C216.049 55.4499 216.049 55.581 216.049 55.6466C216.049 66.7588 213.001 77.5924 212.05 88.6718C212.05 89.1799 212.558 89.3111 212.902 89.098L212.263 97.8828C211.657 99.3251 211.05 100.784 210.526 102.259C210.231 100.997 209.936 99.7349 209.657 98.4892C209.657 98.1287 209.018 98.2926 209.1 98.6532C209.444 100.292 209.739 101.931 210.083 103.57C209.936 104.029 209.755 104.504 209.624 104.98C209.609 105.075 209.626 105.173 209.674 105.257C209.721 105.341 209.796 105.406 209.885 105.442C209.975 105.479 210.074 105.483 210.167 105.456C210.259 105.428 210.339 105.37 210.395 105.291V105.176C210.591 106.05 210.821 106.903 211.083 107.733C211.095 107.774 211.12 107.809 211.154 107.835C211.188 107.86 211.229 107.874 211.272 107.874C211.314 107.874 211.355 107.86 211.389 107.835C211.423 107.809 211.448 107.774 211.46 107.733C211.296 109.487 211.149 111.24 211.017 112.978C210.903 112.306 210.772 111.65 210.64 110.978C210.28 108.962 209.886 106.93 209.526 104.898L207.264 92.6873C207.264 92.4907 206.936 92.5726 206.969 92.7693C208.231 100.341 209.411 107.946 210.804 115.502C210.559 118.517 210.362 121.55 210.247 124.582C208.869 114.941 206.943 105.387 204.478 95.9653C204.469 95.9402 204.452 95.9185 204.43 95.9032C204.408 95.888 204.382 95.8797 204.355 95.8797C204.328 95.8797 204.302 95.888 204.28 95.9032C204.258 95.9185 204.241 95.9402 204.232 95.9653C206.822 106.602 208.428 117.37 210.05 128.187C210.053 128.231 210.066 128.273 210.089 128.311C210.112 128.348 210.144 128.379 210.182 128.4C210.182 128.925 210.182 129.466 210.182 130.039C209.168 122.268 207.652 114.571 205.642 106.996C205.626 106.965 205.6 106.94 205.569 106.926C205.537 106.912 205.501 106.91 205.468 106.92C205.435 106.93 205.406 106.951 205.387 106.98C205.368 107.008 205.359 107.043 205.363 107.077C207.812 117.241 209.456 127.583 210.28 138.005C210.284 138.099 210.323 138.189 210.39 138.255C210.457 138.322 210.546 138.361 210.64 138.365C209.624 149.642 208.461 158.639 207.264 166.425C207.264 166.228 207.264 166.015 207.264 165.802C207.177 160.983 206.953 156.176 206.592 151.379C206.445 149.281 206.264 147.216 206.068 145.118C206.609 144.217 207.117 143.282 207.707 142.381C208.297 141.479 207.199 140.742 205.609 140.742C205.101 136.382 204.445 132.023 203.593 127.63C204.871 119.435 205.871 111.24 204.412 102.833C204.232 101.767 202.774 101.833 202.331 102.554C200.896 104.662 199.582 106.851 198.397 109.11C195.66 107.536 192.694 106.34 189.99 104.734L190.153 104.57ZM210.837 131.383C210.837 131.908 210.673 132.449 210.575 133.022C210.575 132.449 210.477 131.891 210.411 131.383C210.477 131.418 210.55 131.436 210.624 131.436C210.698 131.436 210.771 131.418 210.837 131.383ZM204.576 140.824C203.445 141.007 202.379 141.475 201.479 142.184C201.905 137.972 202.593 133.825 203.249 129.679C203.724 133.367 204.183 137.071 204.593 140.791L204.576 140.824ZM179.992 215.2C181.5 215.807 182.991 216.479 184.483 217.2C185.643 221.791 186.551 226.441 187.203 231.131C187.203 233.229 187.203 235.343 187.203 237.441C186.515 236.048 185.859 234.639 185.187 233.262C185.182 233.237 185.171 233.214 185.155 233.194C185.139 233.174 185.119 233.158 185.096 233.147C185.073 233.137 185.048 233.131 185.023 233.132C184.998 233.133 184.973 233.139 184.95 233.151C184.928 233.163 184.909 233.18 184.894 233.2C184.879 233.221 184.869 233.245 184.865 233.27C184.861 233.295 184.863 233.32 184.871 233.345C184.878 233.369 184.891 233.391 184.909 233.409C185.646 235.048 186.433 236.835 187.187 238.539C187.11 245.488 187.034 252.438 186.957 259.387C186.597 258.666 186.203 257.961 185.826 257.224C185.663 256.928 185.204 257.224 185.351 257.502C185.908 258.551 186.416 259.6 186.99 260.633V265.14C186.99 270.188 186.859 275.252 186.793 280.317L186.597 279.907C186.597 279.776 186.302 279.907 186.351 280.022C186.4 280.136 186.646 280.694 186.777 281.038C186.777 285.709 186.679 290.38 186.777 295.051C186.679 294.805 186.564 294.526 186.449 294.281C186.597 294.641 186.712 295.018 186.859 295.395C186.859 299.001 187.039 302.59 187.252 306.163C187.268 306.232 187.307 306.293 187.362 306.336C187.417 306.38 187.485 306.404 187.556 306.404C187.626 306.404 187.694 306.38 187.749 306.336C187.804 306.293 187.843 306.232 187.859 306.163C188.006 303.738 188.072 301.246 188.154 298.853C188.351 299.427 188.564 299.984 188.76 300.492C188.957 301 188.662 301.984 188.645 302.721C188.645 303 189.039 302.984 189.072 302.721C189.104 302.459 189.072 301.984 189.186 301.64C190.137 304.18 191.12 306.72 192.218 309.179C192.237 309.2 192.261 309.214 192.288 309.221C192.315 309.227 192.343 309.224 192.369 309.213C192.394 309.202 192.416 309.184 192.43 309.16C192.444 309.136 192.451 309.108 192.448 309.081C191.514 306.294 190.416 303.557 189.268 300.886C189.727 297.132 190.137 293.346 190.448 289.544L193.251 296.231C192.89 300.705 192.563 305.18 192.464 309.654C192.464 309.9 192.776 309.867 192.825 309.654C193.317 305.721 193.628 301.771 193.907 297.804L194.824 300.001C194.972 300.378 195.48 300.099 195.414 299.771C195.335 299.217 195.215 298.669 195.054 298.132C195.054 297.952 194.743 298.001 194.71 298.132C194.448 297.608 194.218 297.067 193.989 296.493C194.185 293.641 194.366 290.773 194.546 287.938C194.6 287.955 194.657 287.96 194.714 287.953C194.77 287.945 194.824 287.924 194.871 287.893C194.918 287.861 194.958 287.819 194.987 287.771C195.016 287.722 195.033 287.667 195.037 287.61C195.103 287.022 195.136 286.431 195.136 285.84C195.123 285.795 195.096 285.756 195.059 285.728C195.022 285.701 194.977 285.685 194.931 285.685C194.885 285.685 194.84 285.701 194.803 285.728C194.766 285.756 194.739 285.795 194.726 285.84C194.726 285.987 194.726 286.151 194.726 286.299C194.726 286.26 194.716 286.221 194.698 286.187C194.68 286.152 194.653 286.122 194.621 286.1C194.589 286.077 194.552 286.063 194.513 286.058C194.475 286.052 194.435 286.056 194.398 286.069C193.398 283.906 192.382 281.759 191.317 279.612C191.546 276.334 191.743 273.154 191.956 269.926C192.776 271.565 193.595 273.203 194.464 274.842C194.513 274.923 194.588 274.986 194.676 275.022C194.764 275.057 194.861 275.063 194.953 275.04C195.044 275.016 195.126 274.963 195.186 274.889C195.245 274.815 195.279 274.724 195.283 274.629C195.185 272.531 195.054 270.417 194.824 268.319C194.812 268.275 194.785 268.236 194.748 268.208C194.711 268.18 194.666 268.165 194.62 268.165C194.573 268.165 194.528 268.18 194.491 268.208C194.454 268.236 194.427 268.275 194.415 268.319C194.415 269.827 194.415 271.351 194.415 272.859L192.055 268.401C192.219 265.648 192.399 262.927 192.579 260.206C193.349 262.321 194.12 264.435 194.874 266.566C194.972 266.812 195.398 266.877 195.464 266.566C195.675 265.668 195.839 264.76 195.955 263.845C195.955 263.583 195.611 263.55 195.529 263.845C195.363 264.383 195.226 264.931 195.12 265.484C194.284 263.32 193.481 261.157 192.661 258.928C192.661 258.256 192.661 257.568 192.792 256.896C192.792 256.797 192.677 256.896 192.661 256.896C192.661 257.42 192.546 257.961 192.497 258.535C192.104 257.469 191.694 256.404 191.284 255.339C191.186 255.076 190.743 255.191 190.858 255.47L192.382 259.682C192.137 262.304 191.858 264.91 191.596 267.549C190.448 265.386 189.285 263.222 188.154 261.075C188.154 253.907 188.094 246.756 187.974 239.621L188.596 240.998C188.711 242.555 188.809 244.112 188.875 245.669C188.888 245.717 188.917 245.76 188.957 245.79C188.997 245.821 189.046 245.837 189.096 245.837C189.146 245.837 189.195 245.821 189.235 245.79C189.275 245.76 189.304 245.717 189.317 245.669C189.317 244.603 189.317 243.522 189.317 242.391C190.727 245.456 192.169 248.504 193.677 251.504C193.792 251.766 194.152 251.504 194.038 251.274C192.546 247.799 190.924 244.341 189.285 240.916C189.132 236.428 188.683 231.954 187.941 227.525C187.941 226.345 187.941 225.165 187.941 224.002C187.941 223.887 187.744 223.887 187.744 224.002C187.744 224.657 187.744 225.313 187.744 225.968C187.22 223.117 186.564 220.33 185.81 217.528L186.269 217.741C186.406 217.819 186.568 217.84 186.72 217.798C186.873 217.757 187.002 217.656 187.08 217.519C187.159 217.383 187.179 217.22 187.138 217.068C187.096 216.916 186.996 216.786 186.859 216.708C186.351 216.348 185.826 216.02 185.22 215.676C183.927 211.113 182.35 206.635 180.5 202.269C181.418 203.367 182.335 204.432 183.319 205.547C183.45 205.694 183.712 205.547 183.598 205.35C182.352 203.58 180.991 201.908 179.631 200.237C178.762 198.303 177.845 196.369 176.878 194.467C176.878 194.467 176.747 194.467 176.779 194.467C177.566 196.106 178.271 197.745 178.959 199.384L177.845 198.008C177.566 197.663 177.091 198.155 177.353 198.499C178.189 199.499 178.992 200.532 179.844 201.531C180.533 203.252 181.205 204.957 181.811 206.678C180.452 205.193 178.984 203.812 177.419 202.547L171.846 197.516C171.617 197.303 171.289 197.631 171.502 197.844C173.321 199.565 175.091 201.335 176.894 203.056C178.388 204.764 180.07 206.298 181.909 207.628C181.978 207.652 182.053 207.652 182.122 207.628C182.958 210.12 183.761 212.644 184.384 215.168C173.534 208.612 160.177 208.415 147.704 208.448C152.14 205.615 157.022 203.548 162.143 202.334C162.258 202.334 162.291 202.22 162.389 202.171C166.1 204.758 170.039 207.002 174.157 208.874C174.214 208.906 174.281 208.915 174.344 208.898C174.407 208.882 174.46 208.84 174.493 208.784C174.526 208.727 174.534 208.66 174.518 208.597C174.501 208.534 174.459 208.48 174.403 208.448C170.749 205.791 166.866 203.466 162.799 201.499C162.808 201.244 162.721 200.995 162.553 200.803C162.385 200.612 162.151 200.491 161.898 200.466L160.553 200.368L158.767 199.483C158.743 199.478 158.718 199.482 158.696 199.493C158.674 199.504 158.656 199.522 158.645 199.544C158.634 199.566 158.63 199.591 158.634 199.616C158.639 199.64 158.651 199.662 158.669 199.679L159.619 200.318C115.646 197.303 113.417 198.68 117.531 194.893C119.678 192.91 137.428 191.009 140.476 190.796C165.634 189.157 176.206 197.352 159.111 184.732C157.472 183.552 154.194 182.093 153.309 180.471C149.802 174.521 155.965 175.209 159.275 175.996C170.125 178.586 177.599 191.747 183.335 200.204C183.057 187.42 176.779 177.799 169.125 164.736C167.142 161.36 164.372 154.903 160.029 153.821C155.686 152.739 154.375 154.804 127.741 169.506C133.625 158.984 128.282 164.868 102.862 176.439C102.378 176.956 101.791 177.365 101.139 177.641C100.487 177.916 99.7836 178.052 99.0757 178.038C98.3678 178.024 97.6707 177.861 97.0298 177.56C96.3888 177.259 95.8184 176.827 95.3554 176.291C100.174 172.177 127.545 157.345 132.232 154.755C132.446 154.627 132.612 154.432 132.705 154.201C132.799 153.97 132.814 153.714 132.749 153.473C132.684 153.232 132.543 153.019 132.346 152.866C132.149 152.713 131.908 152.628 131.658 152.624C125.419 152.775 119.214 151.66 113.417 149.346C126.955 144.02 142.246 150.904 156.243 147.003C156.406 146.954 156.553 146.864 156.672 146.742C156.79 146.62 156.875 146.47 156.92 146.306C156.964 146.142 156.966 145.97 156.925 145.805C156.884 145.64 156.801 145.488 156.686 145.364C149.49 137.349 147.409 126.778 135.379 124.729C130.314 123.877 125.119 124.5 120.038 124.729C117.104 124.828 110.548 125.991 113.22 120.845C114.515 118.37 121.054 115.354 123.447 113.683C124.234 113.142 124.07 111.552 122.923 111.667C111.604 112.953 100.172 112.904 88.8649 111.519C95.9864 106.32 104.331 103.051 113.089 102.029C113.155 102.022 113.219 102 113.276 101.967C113.333 101.933 113.382 101.888 113.421 101.834C113.46 101.78 113.487 101.718 113.5 101.653C113.513 101.588 113.513 101.521 113.499 101.456C113.728 101.456 113.925 101.177 113.761 100.948C109.762 95.3588 105.386 90.1305 100.879 84.9186C98.9283 82.6732 93.3065 78.1169 92.5362 75.2814C92.8148 73.036 93.1263 70.7907 93.4377 68.5453L95.0767 69.4959C96.7976 69.6598 99.0595 72.2985 100.272 73.3147C108.467 80.2639 114.859 89.3274 124.234 94.9163C124.464 95.5883 124.644 96.1128 124.726 96.4242C124.795 96.6676 124.959 96.8734 125.18 96.9963C125.401 97.1193 125.662 97.1493 125.906 97.0798C126.149 97.0102 126.355 96.8468 126.478 96.6255C126.601 96.4042 126.631 96.1431 126.561 95.8997C126.751 95.8421 126.919 95.7304 127.046 95.5783C127.173 95.4262 127.253 95.2403 127.275 95.0435C127.298 94.8468 127.263 94.6477 127.174 94.4707C127.085 94.2938 126.946 94.1468 126.774 94.0477C126.479 93.8674 126.217 93.6871 125.922 93.5232C124.693 89.2619 122.48 81.8373 126.07 81.067C127.332 80.8047 129.921 86.2298 130.397 87.2459C133.888 94.6541 131.101 102.275 137.592 106.422C137.781 106.531 137.996 106.589 138.215 106.589C138.434 106.589 138.649 106.531 138.839 106.421C139.028 106.311 139.185 106.154 139.294 105.964C139.403 105.774 139.46 105.559 139.46 105.34C139.329 101.915 139.345 98.5057 139.329 95.0802C139.329 94.0313 138.821 91.4253 139.329 90.5239C138.952 88.8849 139.706 88.6554 141.591 89.688C143.459 89.1799 144.279 89.688 144.115 91.327C146.917 96.2439 142.935 125.745 156.358 134.956C157.278 139.505 158.719 143.932 160.652 148.15C160.712 148.245 160.801 148.317 160.905 148.358C161.009 148.399 161.124 148.405 161.232 148.375C161.34 148.346 161.436 148.283 161.506 148.195C161.575 148.107 161.615 148 161.619 147.888C159.636 130.023 155.62 127.106 158.521 97.3256C162.045 104.16 161.389 107.782 162.078 116.993C162.067 117.044 162.067 117.096 162.079 117.146C162.09 117.196 162.113 117.243 162.145 117.283C162.177 117.323 162.218 117.356 162.265 117.378C162.311 117.401 162.362 117.412 162.414 117.412C162.465 117.412 162.516 117.401 162.563 117.378C162.609 117.356 162.65 117.323 162.682 117.283C162.714 117.243 162.737 117.196 162.749 117.146C162.761 117.096 162.761 117.044 162.75 116.993C162.75 115.977 162.75 114.961 162.864 113.928C164.946 127.27 165.913 116.682 163.143 105.553C164.258 72.7738 164.225 63.2186 171.436 56.5316C171.797 68.6108 170.223 99.9807 170.223 99.9807C169.55 102.75 169.444 105.627 169.912 108.438C169.912 108.831 170.568 108.716 170.584 108.356C170.615 102.534 172.745 96.9182 176.583 92.5398C176.878 109.536 168.224 125.319 167.339 142.053C167.339 142.053 167.109 142.053 167.126 142.053C167.388 144.43 167.126 145.052 167.355 148.052C167.355 148.265 167.436 148.471 167.583 148.626C167.729 148.781 167.929 148.875 168.142 148.888C168.142 148.888 173.698 168.555 174.469 170.375C176.927 176.209 179.73 183.486 184.909 187.289C187.466 177.651 183.745 168.817 185.302 147.052C185.466 144.741 188.187 134.678 187.138 133.121C188.966 135.934 189.887 139.241 189.776 142.594C189.776 142.512 189.613 142.479 189.58 142.594C187.132 151.665 186.273 161.092 187.039 170.456C187.039 170.735 187.482 170.735 187.465 170.456C187.465 169.276 187.465 168.096 187.465 166.9C187.564 166.9 187.629 166.802 187.662 166.67C188.973 161.065 190.383 155.46 191.366 149.756C191.355 149.72 191.332 149.688 191.301 149.665C191.27 149.642 191.233 149.63 191.194 149.63C191.156 149.63 191.118 149.642 191.087 149.665C191.056 149.688 191.034 149.72 191.022 149.756C189.596 154.591 188.514 159.59 187.4 164.507C187.465 157.246 188.289 150.012 189.858 142.922C189.858 143.135 189.858 143.331 189.858 143.561C189.858 144.905 191.858 144.888 191.956 143.561C192.733 130.436 196.633 117.686 203.331 106.373C205.74 119.812 200.053 133.629 199.381 147.052C199.399 147.316 199.508 147.565 199.689 147.758C199.87 147.951 200.112 148.075 200.375 148.11C200.637 148.145 200.903 148.088 201.128 147.949C201.353 147.81 201.523 147.597 201.61 147.347L204.593 145.036C200.987 147.839 192.481 171.046 190.825 179.864C185.695 207.186 196.906 240.211 206.33 338.336C206.133 339.008 205.969 339.516 206.494 339.975C207.641 351.907 208.756 363.839 209.919 375.77C200.876 373.693 191.565 373.035 182.319 373.82C182.319 373.82 182.319 373.82 182.319 373.738C182.614 371.181 182.909 368.608 183.221 366.051C183.952 366.824 184.729 367.552 185.548 368.231C185.433 369.149 185.269 370.067 185.154 370.968C185.04 371.869 186.122 372.001 186.253 371.263C186.384 370.526 186.498 369.821 186.63 369.083C187.65 369.861 188.749 370.531 189.907 371.083C189.907 371.689 189.907 372.279 189.907 372.886C189.907 372.964 189.939 373.039 189.994 373.094C190.049 373.15 190.124 373.181 190.203 373.181C190.281 373.181 190.356 373.15 190.411 373.094C190.466 373.039 190.497 372.964 190.497 372.886C190.658 372.398 190.784 371.9 190.874 371.394C191.153 371.476 191.415 371.624 191.678 371.706C192.038 372.164 192.366 372.656 192.726 373.099C193.087 373.541 193.595 372.984 193.349 372.623C192.677 371.591 191.973 370.624 191.284 369.608C191.686 366.815 191.944 364.003 192.055 361.183C193.059 362.622 194.154 363.996 195.333 365.297C195.529 365.51 195.841 365.297 195.71 365.002C193.696 361.402 191.394 357.971 188.826 354.742C189.072 352.841 189.301 350.956 189.498 349.055C191.874 352.71 194.152 356.447 196.644 360.02C196.889 360.38 197.496 360.02 197.25 359.659C194.808 355.84 192.12 352.169 189.563 348.432C189.694 347.318 189.826 346.22 189.924 345.154C189.916 345.137 189.904 345.122 189.888 345.111C189.872 345.101 189.853 345.095 189.834 345.095C189.815 345.095 189.796 345.101 189.78 345.111C189.764 345.122 189.751 345.137 189.744 345.154C189.531 346.121 189.334 347.105 189.121 348.072C189.093 348.076 189.066 348.087 189.043 348.104C189.019 348.121 189.001 348.143 188.988 348.169C188.975 348.195 188.968 348.223 188.969 348.252C188.969 348.28 188.976 348.309 188.99 348.334C188.596 350.071 188.252 351.825 187.908 353.579C187.515 353.038 187.105 352.497 186.712 351.94C186.318 351.382 185.794 351.94 186.072 352.317L187.711 354.742C187.203 357.414 186.744 360.069 186.318 362.74L183.893 359.462C185.712 344.007 187.548 328.535 188.81 313.047C188.81 312.965 188.678 312.932 188.662 313.047C186.4 328.027 184.63 343.073 182.844 358.119C181.926 356.922 181.041 355.726 180.156 354.529C180.008 354.333 179.697 354.529 179.828 354.726C180.811 356.124 181.778 357.534 182.729 358.954C182.549 360.511 182.352 362.068 182.172 363.642C180.964 362.238 179.868 360.742 178.894 359.167C182.975 327.535 189.531 254.306 179.943 215.168L179.992 215.2ZM187.564 233.868C187.793 235.737 187.99 237.621 188.137 239.506C187.957 239.146 187.777 238.769 187.613 238.408L187.564 233.868ZM190.186 277.973C189.891 277.366 189.596 276.776 189.317 276.186C189.039 275.596 188.596 276.186 188.777 276.498L190.055 279.251C189.825 281.726 189.629 284.168 189.416 286.659L188.039 283.513C188.039 277.383 187.859 271.253 187.826 265.14C187.826 264.255 187.826 263.353 187.826 262.452C188.924 264.599 190.022 266.762 191.104 268.926C190.727 271.909 190.432 274.908 190.137 277.94L190.186 277.973ZM190.874 281.021C191.809 283.037 192.776 285.07 193.759 287.069C193.546 289.724 193.3 292.379 193.087 295.051C192.415 293.494 191.727 291.953 191.038 290.396C190.793 289.806 190.53 289.216 190.268 288.626C190.432 286.053 190.645 283.513 190.825 280.989L190.874 281.021ZM189.35 287.577C189.006 291.675 188.744 295.772 188.547 299.853C188.334 299.329 188.121 298.837 187.924 298.312C188.039 293.723 188.088 289.118 188.039 284.496L189.35 287.577ZM182.925 364.838L183.417 360.511L185.744 363.953L185.302 366.969C184.729 366.543 184.182 366.083 183.663 365.592C183.352 365.248 183.122 364.986 182.876 364.74L182.925 364.838ZM189.662 369.509C189.653 369.668 189.653 369.826 189.662 369.985C188.596 369.264 187.515 368.542 186.384 367.788L186.777 365.51C187.711 366.756 188.646 368.083 189.613 369.411L189.662 369.509ZM187.039 364.232C187.482 361.528 187.892 358.84 188.252 356.037C189.252 357.676 190.284 359.135 191.35 360.643C190.858 362.986 190.235 365.559 189.842 367.969C188.891 366.674 187.892 365.396 186.99 364.117L187.039 364.232ZM178.402 360.069C179.364 361.719 180.461 363.286 181.68 364.756C181.336 367.739 180.975 370.739 180.615 373.705C180.615 373.787 180.615 373.82 180.615 373.869C178.795 374.017 177.025 374.197 175.337 374.41C175.927 374.049 177.058 368.706 178.353 359.971L178.402 360.069ZM155.62 394.782C159.439 385.67 161.193 379.163 174.96 377.475C185.163 376.103 195.519 376.357 205.642 378.229C205.635 378.289 205.64 378.35 205.657 378.408C205.674 378.467 205.702 378.521 205.74 378.568C205.779 378.616 205.826 378.655 205.879 378.684C205.932 378.713 205.991 378.731 206.051 378.737C208.383 379.058 210.678 379.607 212.902 380.376C212.902 380.556 212.788 380.736 212.738 380.9C212.493 381.72 213.738 382.031 214 381.261L214.132 380.867C215.5 381.385 216.831 381.999 218.114 382.703C218.113 382.864 218.156 383.022 218.237 383.162C218.318 383.301 218.435 383.415 218.575 383.494C218.716 383.573 218.875 383.612 219.036 383.609C219.197 383.605 219.354 383.558 219.491 383.473C223.413 385.838 226.698 389.123 229.062 393.045C229.259 393.373 229.423 393.684 229.603 394.012C230.625 398.51 231.071 403.12 230.931 407.73C230.931 408.517 230.931 409.369 230.833 410.189C230.701 410.566 230.57 410.959 230.39 411.352C230.365 411.418 230.353 411.488 230.356 411.558C230.358 411.628 230.376 411.697 230.407 411.76C230.437 411.823 230.481 411.879 230.535 411.925C230.588 411.97 230.651 412.004 230.718 412.024C230.505 414.761 230.177 417.646 230.128 420.449L229.964 420.825C229.521 420.367 229.062 419.94 228.604 419.498C229.352 411.873 228.674 404.175 226.604 396.798C226.604 396.569 226.178 396.667 226.227 396.913C227.695 404.165 228.311 411.563 228.063 418.957C226.612 417.615 225.091 416.351 223.506 415.171C224.377 410.568 224.095 405.822 222.687 401.354C222.66 401.307 222.617 401.27 222.566 401.249C222.515 401.229 222.459 401.225 222.406 401.241C222.353 401.256 222.307 401.288 222.275 401.332C222.242 401.377 222.226 401.431 222.228 401.486C223.355 405.855 223.655 410.396 223.113 414.876C216.048 409.594 207.748 406.209 199.004 405.042C199.01 404.982 199.01 404.922 199.004 404.862C198.856 404.124 198.725 403.387 198.561 402.682C198.889 403.108 199.741 403.043 199.692 402.371C199.692 402.059 199.692 401.748 199.692 401.453C204.118 401.991 208.575 402.238 213.033 402.19C213.345 402.19 213.443 401.682 213.033 401.633C208.56 400.908 204.042 400.486 199.512 400.371C199.512 399.978 199.414 399.601 199.348 399.224C199.282 398.847 198.774 398.912 198.725 399.224C198.676 399.535 198.725 399.961 198.643 400.306H198.512C197.824 399.175 197.168 398.027 196.595 396.847C199.997 397.358 203.431 397.632 206.871 397.667C206.94 397.667 207.007 397.639 207.056 397.59C207.105 397.541 207.133 397.474 207.133 397.405C207.133 397.335 207.105 397.268 207.056 397.219C207.007 397.17 206.94 397.142 206.871 397.142C203.239 396.249 199.547 395.625 195.824 395.274C195.3 394.089 194.846 392.874 194.464 391.635L196.611 391.898C197.129 392.908 197.882 393.779 198.807 394.438C199.086 394.635 199.495 394.241 199.282 393.963C198.791 393.307 198.348 392.668 197.922 392.012C200.301 392.268 202.692 392.377 205.084 392.34C205.363 392.34 205.461 391.865 205.084 391.799C202.473 391.323 199.835 391.005 197.185 390.849C196.988 390.472 196.824 390.062 196.66 389.652C198.709 389.816 200.741 389.996 202.773 390.095C203.052 390.095 203.118 389.652 202.773 389.603C200.61 389.243 198.414 388.948 196.217 388.636C196.052 388.004 195.965 387.355 195.955 386.702C199.484 387.259 203.053 387.527 206.625 387.505C206.682 387.491 206.731 387.458 206.767 387.412C206.803 387.366 206.822 387.309 206.822 387.251C206.822 387.193 206.803 387.136 206.767 387.09C206.731 387.044 206.682 387.012 206.625 386.997C200.91 385.894 195.105 385.312 189.285 385.26C189.055 385.26 189.006 385.62 189.285 385.653C191.219 385.981 193.218 386.309 195.234 386.604C195.244 387.245 195.293 387.886 195.382 388.521C188.334 387.554 181.221 386.882 174.075 386.21C173.551 384.899 172.993 383.604 172.436 382.31C172.272 381.916 171.731 382.31 171.895 382.621C172.403 383.801 172.928 384.981 173.534 386.161L165.126 385.44C164.815 385.44 164.749 385.915 165.028 385.965L159.947 385.489C159.701 385.489 159.652 385.866 159.947 385.899C163.831 386.456 167.749 386.948 171.666 387.161C171.83 387.161 171.862 386.964 171.666 386.882L174.042 387.194C174.082 387.217 174.127 387.229 174.173 387.229C174.219 387.229 174.265 387.217 174.304 387.194C181.385 388.128 188.514 388.964 195.611 389.538C195.726 389.947 195.841 390.324 195.972 390.701C193.186 390.554 190.366 390.472 187.646 390.357C187.4 390.357 187.4 390.685 187.646 390.718L189.924 391.029C190.334 392.324 190.793 393.586 191.317 394.831L189.432 394.717C188.367 392.717 187.285 390.701 186.154 388.735C186.007 388.472 185.63 388.734 185.744 388.98C186.597 390.882 187.531 392.766 188.432 394.668L185.941 394.504C185.253 393.504 184.581 392.488 183.942 391.488C183.922 391.458 183.891 391.436 183.856 391.428C183.821 391.421 183.784 391.427 183.753 391.447C183.723 391.467 183.701 391.497 183.694 391.533C183.686 391.568 183.693 391.605 183.712 391.635C185.154 394.127 186.515 396.864 187.974 399.503C184.991 399.306 182.024 399.126 179.041 399.06C178.681 399.06 178.697 399.568 179.041 399.601C182.188 399.994 185.368 400.273 188.531 400.519C189.35 401.945 190.17 403.338 191.12 404.632C188.62 404.752 186.136 405.093 183.696 405.649C178.14 406.616 173.96 408.255 178.992 407.009C175.403 408.337 181.991 405.747 192.481 406.403C192.608 406.584 192.745 406.759 192.891 406.927C192.929 406.963 192.977 406.986 193.029 406.993C193.081 406.999 193.134 406.989 193.18 406.963C193.226 406.938 193.262 406.898 193.284 406.85C193.305 406.802 193.311 406.749 193.3 406.698L193.202 406.452C200.494 406.985 207.589 409.07 214.011 412.566C220.433 416.062 226.034 420.89 230.439 426.726C230.439 426.923 230.439 427.136 230.57 427.332C230.608 427.484 230.698 427.617 230.823 427.71C230.949 427.803 231.103 427.849 231.259 427.84C237.999 437.056 242.489 447.72 244.37 458.981C235.009 451.954 224.081 447.308 212.525 445.443C212.214 445.443 212.083 445.869 212.394 445.918C224.013 447.951 234.999 452.659 244.485 459.669C244.698 460.915 244.895 462.177 245.075 463.439C242.952 462.162 240.764 460.997 238.519 459.948C238.519 459.948 238.601 459.948 238.519 459.948L237.667 459.063L238.503 459.882C233.682 457.587 228.641 455.786 223.457 454.506C223.211 453.376 222.998 452.228 222.753 451.097C222.753 450.884 222.375 450.983 222.425 451.179C222.67 452.261 222.867 453.343 223.08 454.457C220.769 453.9 218.409 453.474 216.065 453.113C215.951 451.343 215.836 449.573 215.754 447.803C215.754 447.639 215.475 447.639 215.492 447.803C215.59 449.557 215.705 451.327 215.803 453.064C215.099 452.966 214.394 452.835 213.705 452.753C213.378 452.753 213.312 453.277 213.705 453.326C214.459 453.441 215.18 453.589 215.918 453.72C216.328 460.964 216.754 468.225 217.246 475.452C217.246 475.474 217.254 475.495 217.27 475.51C217.285 475.526 217.306 475.534 217.327 475.534C217.349 475.534 217.37 475.526 217.385 475.51C217.401 475.495 217.409 475.474 217.409 475.452C217.049 468.225 216.623 460.997 216.18 453.769C218.606 454.211 220.999 454.736 223.359 455.408C225.266 464.985 226.363 474.706 226.637 484.467C226.063 483.172 225.49 481.91 224.998 480.615C224.998 480.435 224.588 480.615 224.67 480.746C225.375 482.5 226.047 484.254 226.751 486.007C226.884 493.121 226.588 500.236 225.867 507.314C224.228 504.429 222.375 501.578 220.786 498.726C220.655 498.48 220.294 498.726 220.409 498.939C222.212 502.397 223.867 506.052 225.637 509.658C225.047 514.755 224.228 519.852 223.195 524.9C220.72 519.065 218.278 513.231 215.77 507.396C215.59 506.97 214.918 507.15 215.082 507.576C217.672 513.985 220.212 520.426 222.769 526.834C222.195 529.489 221.572 532.144 220.868 534.767C219.638 534.455 218.393 534.128 217.147 533.849C215.738 530.784 214.328 527.736 213.001 524.671C212.902 524.458 212.542 524.671 212.624 524.818C213.82 527.719 214.951 530.653 216.065 533.587C206.784 531.542 197.386 530.069 187.924 529.178C187.646 529.178 187.646 529.571 187.924 529.604C197.537 530.7 207.072 532.391 216.475 534.668L217.229 536.602C211.378 535.799 205.51 535.095 199.676 534.291C199.364 534.291 199.233 534.718 199.545 534.767C205.543 535.619 211.542 536.57 217.573 537.389C218.065 538.667 218.573 539.913 219.081 541.159C217.918 544.978 216.655 548.747 215.246 552.451V552.369C213.361 548.321 211.411 544.305 209.559 540.257C209.428 539.995 209.067 540.257 209.182 540.47C211.017 544.748 212.755 549.059 214.574 553.336C214.574 553.484 214.689 553.648 214.754 553.795C213.541 556.926 212.23 560.04 210.837 563.104C210.116 561.466 209.411 559.958 208.706 558.384C208.575 558.073 208.035 558.384 208.166 558.614C208.903 560.466 209.624 562.301 210.345 564.17C210.181 564.53 210.034 564.891 209.887 565.235C209.739 565.579 210.05 565.563 210.132 565.383C210.214 565.202 210.378 564.858 210.509 564.58C212.591 569.939 214.64 575.315 217.065 580.494C217.131 580.605 217.231 580.692 217.35 580.74C217.47 580.789 217.602 580.797 217.726 580.764C217.851 580.73 217.961 580.657 218.04 580.555C218.119 580.453 218.162 580.328 218.163 580.199C218.163 579.314 218.032 578.429 217.917 577.544C217.917 577.457 217.883 577.373 217.822 577.312C217.76 577.251 217.677 577.216 217.59 577.216C217.503 577.216 217.419 577.251 217.358 577.312C217.297 577.373 217.262 577.457 217.262 577.544C217.253 577.62 217.253 577.697 217.262 577.773C215.344 572.955 213.197 568.218 211.05 563.498C212.471 560.504 213.798 557.466 215.033 554.385C216.222 557.677 217.709 560.853 219.475 563.875C219.519 563.941 219.585 563.99 219.662 564.013C219.738 564.036 219.82 564.031 219.894 564C219.968 563.969 220.028 563.914 220.065 563.843C220.102 563.772 220.114 563.691 220.097 563.613C218.916 559.953 217.413 556.404 215.607 553.008C217.016 549.37 218.305 545.682 219.475 541.945C220.474 544.404 221.507 546.862 222.621 549.206C222.688 549.336 222.802 549.435 222.939 549.484C223.077 549.532 223.228 549.527 223.361 549.469C223.495 549.41 223.601 549.303 223.658 549.169C223.716 549.035 223.72 548.884 223.67 548.747C223.408 547.928 223.195 547.108 222.9 546.272C222.873 546.211 222.829 546.159 222.774 546.122C222.719 546.084 222.655 546.063 222.589 546.059C221.786 544.043 220.95 542.06 220.065 540.077C220.294 539.307 220.54 538.569 220.753 537.832C223.244 538.143 225.67 538.438 228.227 538.684C228.456 538.684 228.505 538.34 228.227 538.307C225.785 537.864 223.31 537.471 220.884 537.11L221.228 535.799C225.227 536.799 229.226 537.864 233.242 538.962C233.297 538.964 233.351 538.948 233.395 538.916C233.44 538.883 233.472 538.837 233.487 538.784C233.502 538.732 233.499 538.675 233.478 538.624C233.458 538.573 233.421 538.531 233.373 538.504C229.456 537.127 225.49 535.947 221.474 534.898C222.097 532.554 222.671 530.178 223.113 527.801C223.752 529.342 224.359 530.899 224.981 532.439C225.227 533.062 226.26 533.062 226.244 532.275C226.257 531.508 226.213 530.741 226.112 529.981C226.112 529.588 225.473 529.44 225.375 529.883C225.375 529.883 225.375 529.997 225.375 530.046C224.785 528.637 224.195 527.227 223.588 525.818C224.637 520.753 225.49 515.673 226.096 510.526C227.523 513.521 229.167 516.408 231.013 519.164C231.292 519.541 232.029 519.311 231.816 518.82C230.262 515.122 228.426 511.55 226.325 508.133C227.055 501.231 227.367 494.291 227.26 487.351C229.669 493.481 232.062 499.611 234.602 505.691C234.848 506.281 235.913 506.298 235.831 505.528C235.75 504.757 235.667 504.036 235.536 503.102C235.536 502.758 234.897 502.758 234.865 503.102C232.373 497.234 229.784 491.416 227.194 485.598C226.938 475.475 225.792 465.395 223.769 455.473C231.282 457.563 238.513 460.557 245.305 464.389C246.047 470.643 246.25 476.949 245.911 483.237C245.18 494.742 243.441 506.16 240.716 517.361C236.897 533.505 231.75 549.435 226.866 565.186C225.424 569.857 223.916 574.528 222.425 579.199C219.458 588.017 216.442 596.818 213.509 605.636C212.187 609.591 210.853 613.536 209.51 617.469C207.707 622.605 205.876 627.734 204.019 632.859C171.24 722.757 131.265 810.015 88.357 895.455C76.6547 918.75 64.8213 941.98 52.8568 965.144C52.8568 964.423 52.6929 963.702 52.5945 962.964C52.5812 962.916 52.5525 962.873 52.5125 962.842C52.4725 962.812 52.4235 962.795 52.3732 962.795C52.323 962.795 52.2742 962.812 52.2342 962.842C52.1942 962.873 52.1655 962.916 52.1522 962.964C52.1522 963.292 52.1522 963.62 52.1522 963.931C49.7265 959.489 46.7436 955.245 43.9573 951C43.9073 950.913 43.8249 950.849 43.728 950.823C43.6312 950.797 43.5279 950.81 43.4409 950.86C43.354 950.91 43.2904 950.993 43.2643 951.09C43.2382 951.186 43.2517 951.29 43.3017 951.377C46.1535 956.146 48.7594 961.21 52.0209 965.734C52.0666 965.8 52.1277 965.854 52.1992 965.892C52.2706 965.929 52.3501 965.948 52.4307 965.947C46.3446 977.748 40.2531 989.559 34.1561 1001.38C30.8782 1007.59 25.5679 1015.38 18.4056 1017.46C0.737534 1022.62 2.26186 984.68 2.91744 975.732C4.55641 954.245 8.89969 932.84 12.1449 911.566C19.0941 865.904 25.945 820.226 33.0417 774.597C36.3197 753.302 39.7013 731.995 43.1869 710.677C43.3415 710.64 43.4816 710.558 43.5896 710.442C43.6975 710.325 43.7684 710.179 43.7933 710.022C46.3992 694.009 48.825 677.98 51.2835 661.967C59.9208 611.159 69.181 560.482 79.5229 510.018C79.6491 510.016 79.7715 509.974 79.8718 509.897C79.9721 509.82 80.045 509.713 80.0801 509.592C83.1941 497.234 85.0791 484.794 87.98 472.65C91.2353 460.264 96.282 448.421 102.96 437.494C106.377 432.112 110.427 427.16 115.023 422.743C122.189 416.151 130.905 411.477 140.361 409.156C145.086 407.934 149.905 407.117 154.768 406.714C158.767 406.37 163.323 407.025 167.191 406.189C167.005 405.987 166.802 405.801 166.585 405.632C166.599 405.62 166.61 405.605 166.618 405.588C166.625 405.571 166.629 405.553 166.629 405.534C166.629 405.515 166.625 405.497 166.618 405.48C166.61 405.463 166.599 405.448 166.585 405.436C165.285 403.834 163.86 402.338 162.324 400.961C163.258 401.06 164.208 401.142 165.143 401.207C165.719 402.041 166.402 402.796 167.175 403.452C167.203 403.492 167.246 403.518 167.294 403.526C167.341 403.533 167.39 403.522 167.429 403.493C167.468 403.465 167.494 403.423 167.502 403.375C167.51 403.327 167.498 403.278 167.47 403.239C167.147 402.541 166.746 401.881 166.274 401.273C167.339 401.273 168.404 401.273 169.453 401.273C169.971 402.069 170.681 402.723 171.518 403.174C171.555 403.191 171.596 403.197 171.636 403.19C171.676 403.183 171.713 403.164 171.742 403.135C171.771 403.107 171.79 403.07 171.797 403.03C171.804 402.99 171.798 402.948 171.781 402.912C171.453 402.264 171.04 401.663 170.551 401.125C170.595 401.088 170.628 401.039 170.646 400.984C170.664 400.929 170.666 400.87 170.653 400.814C170.639 400.758 170.61 400.707 170.569 400.666C170.528 400.626 170.476 400.597 170.42 400.584L170.043 400.502C169.661 400.081 169.31 399.632 168.994 399.158C168.424 398.264 167.936 397.321 167.536 396.339C168.027 396.339 168.519 396.339 169.011 396.339C169.08 396.339 169.147 396.312 169.196 396.263C169.245 396.213 169.273 396.147 169.273 396.077C169.273 396.008 169.245 395.941 169.196 395.892C169.147 395.842 169.08 395.815 169.011 395.815C168.404 395.684 167.781 395.618 167.159 395.503C167.027 395.159 166.88 394.832 166.765 394.487C166.651 394.143 167.011 394.143 167.126 393.963C167.24 393.783 166.978 393.635 166.864 393.766C166.749 393.897 166.634 394.078 166.519 394.225C166.241 394.11 165.864 394.323 165.979 394.668V394.831C165.849 394.983 165.729 395.142 165.618 395.307C164.504 395.127 163.373 395.028 162.242 394.93C163.143 393.422 164.012 391.898 164.799 390.357C167.028 390.603 169.256 390.816 171.469 390.865C171.469 390.865 171.469 390.865 171.568 390.783L171.895 391.619C172.01 391.914 172.485 392.078 172.649 391.734C173.023 390.992 173.346 390.225 173.616 389.439C173.616 389.243 173.403 389.046 173.255 389.226C172.928 389.669 172.649 390.111 172.371 390.57L171.879 389.275C171.682 388.767 170.879 388.997 171.059 389.488L171.453 390.488C167.924 389.921 164.368 389.543 160.799 389.357C161.176 388.521 161.553 387.718 161.898 386.833C161.898 386.719 161.766 386.653 161.701 386.751C161.242 387.604 160.799 388.472 160.373 389.325L158.505 389.193C158.259 389.193 158.275 389.538 158.505 389.57L160.144 389.767C159.341 391.406 158.505 393.045 157.784 394.684L155.62 394.782ZM197.807 403.19C197.299 402.535 196.775 401.879 196.3 401.223L197.742 401.354L197.971 401.715C197.924 401.737 197.883 401.771 197.854 401.815C197.825 401.858 197.809 401.909 197.807 401.961C197.725 402.272 197.725 402.682 197.725 403.092L197.807 403.19ZM194.529 395.225L192.694 395.061C192.117 393.831 191.603 392.573 191.153 391.291L193.349 391.57C193.349 391.57 193.349 391.685 193.349 391.783C193.677 392.848 194.087 393.996 194.529 395.126V395.225ZM195.152 396.7C195.699 397.929 196.311 399.127 196.988 400.289H196.775H195.595C194.791 399.067 194.052 397.803 193.382 396.503L195.152 396.7ZM194.152 400.076L192.382 399.961C191.678 398.585 190.957 397.224 190.235 395.848C190.858 395.979 191.481 396.077 192.136 396.192C192.736 397.491 193.409 398.755 194.152 399.978V400.076ZM191.153 399.863L189.678 399.748C188.662 398.191 187.58 396.651 186.531 395.126C187.351 395.307 188.17 395.454 189.088 395.635C189.776 396.897 190.448 398.355 191.17 399.765L191.153 399.863ZM191.678 400.863C192.317 402.141 192.956 403.436 193.612 404.698H192.595C191.908 403.35 191.153 402.037 190.334 400.764L191.678 400.863ZM192.891 400.961L194.759 401.109C195.595 402.428 196.515 403.693 197.512 404.895C196.709 404.813 195.873 404.78 195.087 404.747C195.005 404.01 194.906 403.289 194.775 402.567C194.775 402.289 194.333 402.387 194.316 402.567C194.3 402.748 194.316 403.223 194.316 403.567L192.891 400.961ZM218.655 536.996C218.393 536.373 218.114 535.766 217.836 535.16L220.802 535.881L220.425 537.242L218.655 536.996ZM220.294 537.963C220.147 538.471 219.983 538.979 219.835 539.52C219.573 538.93 219.327 538.356 219.065 537.782L220.294 537.963ZM160.259 399.175C160.799 398.339 161.34 397.536 161.898 396.602C162.471 397.372 163.045 398.142 163.537 398.945L162.848 399.929C162.192 399.929 161.521 399.83 160.849 399.814L160.259 399.175ZM160.259 399.781H159.882L160.029 399.535L160.259 399.781ZM160.767 395.11L158.783 395.012C159.57 393.416 160.324 391.81 161.045 390.193L164.897 390.668C163.831 392.127 162.848 393.651 161.898 395.192H161.471C161.078 394.7 160.685 394.176 160.291 393.668C160.111 393.422 159.669 393.668 159.865 393.93L160.767 395.11ZM166.978 396.749C167.432 397.886 167.98 398.982 168.617 400.027C168.765 400.256 168.929 400.519 169.093 400.748C167.868 400.511 166.632 400.342 165.389 400.24C165.094 399.896 164.831 399.552 164.585 399.24L164.422 399.027C164.962 398.273 165.438 397.503 165.962 396.733L166.978 396.749ZM163.979 398.454L162.455 396.47C163.422 396.569 164.389 396.602 165.356 396.634C164.946 397.011 164.372 397.601 163.93 398.224L163.979 398.454ZM164.356 400.093H163.586L163.979 399.585L164.356 400.093ZM156.505 399.765C157.128 398.503 157.734 397.257 158.341 395.995L161.226 396.372C160.734 397.175 160.258 398.011 159.767 398.814C159.619 398.65 159.357 398.913 159.521 399.076L159.636 399.191C159.488 399.421 159.357 399.65 159.226 399.879L156.505 399.765ZM159.16 400.978L161.619 401.289L161.832 401.518C161.439 402.108 161.029 402.699 160.619 403.272C160.439 403.534 160.849 403.78 161.045 403.518L162.225 401.879C163.225 402.944 164.241 403.993 165.307 404.96C162.829 403.906 160.145 403.43 157.456 403.567C157.964 402.485 158.538 401.617 159.111 400.732L159.16 400.978Z" fill="#D6D0C1"/>
</svg>
